<svg xmlns="http://www.w3.org/2000/svg" xmlns:xlink="http://www.w3.org/1999/xlink" width="375" viewBox="0 0 375 375" height="375" version="1.0"><defs><clipPath id="d"><path d="M 304 87.179688 L 305.898438 87.179688 L 305.898438 89 L 304 89 Z M 304 87.179688"/></clipPath><clipPath id="e"><path d="M 78 1.152344 L 82 1.152344 L 82 5 L 78 5 Z M 78 1.152344"/></clipPath><clipPath id="f"><path d="M 61.609375 164.160156 L 64.910156 164.160156 L 64.910156 167.636719 L 61.609375 167.636719 Z M 61.609375 164.160156"/></clipPath><clipPath id="g"><path d="M 189.285156 164.160156 L 192.589844 164.160156 L 192.589844 167.636719 L 189.285156 167.636719 Z M 189.285156 164.160156"/></clipPath><clipPath id="h"><path d="M 1.402344 111 L 5 111 L 5 115 L 1.402344 115 Z M 1.402344 111"/></clipPath><clipPath id="c"><path d="M0 0H306V169H0z"/></clipPath><clipPath id="i"><path d="M 37.5 110.191406 L 149.25 110.191406 L 149.25 164.191406 L 37.5 164.191406 Z M 37.5 110.191406"/></clipPath><filter x="0%" y="0%" width="100%" xmlns:xlink="http://www.w3.org/1999/xlink" xlink:type="simple" xlink:actuate="onLoad" height="100%" id="a" xlink:show="other"><feColorMatrix values="0 0 0 0 1 0 0 0 0 1 0 0 0 0 1 0 0 0 1 0" color-interpolation-filters="sRGB"/></filter><mask id="b"><g filter="url(#a)"><path fill-opacity=".749" d="M-37.5 -37.5H412.5V412.5H-37.5z"/></g></mask></defs><path fill="#FFF" d="M-37.5 -37.5H412.5V412.5H-37.5z"/><path fill="#FFF" d="M-37.5 -37.5H412.5V412.5H-37.5z"/><path fill="#FFF" d="M-37.5 -37.5H412.5V412.5H-37.5z"/><g mask="url(#b)"><g><g clip-path="url(#c)" transform="translate(49 103)"><path fill="#FFBD59" d="M 296.675781 105.503906 C 295.960938 105.308594 295.21875 105.183594 294.542969 104.898438 C 294.21875 104.757812 293.84375 104.339844 293.808594 104.011719 C 293.769531 103.671875 294.015625 103.144531 294.304688 102.949219 C 295.507812 102.128906 296.804688 101.816406 298.160156 102.644531 C 297.667969 103.597656 297.171875 104.550781 296.675781 105.503906" fill-rule="evenodd"/><path fill="#FFBD59" d="M 302.03125 95.210938 C 301.21875 94.71875 300.332031 94.308594 299.628906 93.691406 C 299.367188 93.464844 299.390625 92.695312 299.546875 92.273438 C 299.648438 92.007812 300.308594 91.714844 300.605469 91.804688 C 301.507812 92.082031 302.351562 92.539062 303.21875 92.925781 C 302.824219 93.6875 302.425781 94.449219 302.03125 95.210938" fill-rule="evenodd"/><g clip-path="url(#d)"><path fill="#FFBD59" d="M 305.304688 88.921875 C 305.101562 88.886719 304.835938 88.917969 304.710938 88.800781 C 304.457031 88.554688 304.28125 88.230469 304.074219 87.9375 C 304.398438 87.769531 304.710938 87.511719 305.050781 87.464844 C 305.316406 87.429688 305.613281 87.664062 305.898438 87.78125 C 305.699219 88.160156 305.5 88.542969 305.304688 88.921875" fill-rule="evenodd"/></g><path fill="#FFBD59" d="M 187.167969 34.277344 C 188.195312 34.679688 189.007812 34.949219 189.769531 35.324219 C 190.234375 35.554688 190.667969 35.90625 191.027344 36.285156 C 191.5 36.785156 191.605469 37.421875 191.355469 38.074219 C 191.101562 38.722656 190.269531 39.1875 189.515625 39.074219 C 188.277344 38.890625 187.285156 38.335938 186.8125 37.105469 C 186.585938 36.527344 186.402344 35.929688 186.167969 35.261719 C 185.226562 35.3125 184.371094 35.269531 183.546875 35.417969 C 181.671875 35.757812 179.953125 35.023438 178.179688 34.722656 C 177.113281 34.542969 176.53125 33.300781 176.753906 32.191406 C 177 30.972656 178.230469 29.867188 179.273438 30.261719 C 181.011719 30.921875 182.8125 30.984375 184.59375 31.265625 C 185.769531 31.449219 186.53125 32.085938 186.785156 33.289062 C 186.847656 33.59375 187.011719 33.878906 187.167969 34.277344" fill-rule="evenodd"/><path fill="#FFBD59" d="M 175.515625 27.796875 C 175.0625 28.171875 174.78125 28.527344 174.417969 28.675781 C 173.9375 28.871094 173.390625 28.980469 172.871094 28.992188 C 171.378906 29.027344 169.886719 29.027344 168.398438 28.972656 C 167.886719 28.953125 167.285156 28.855469 166.902344 28.558594 C 166.539062 28.277344 166.265625 27.707031 166.230469 27.242188 C 166.207031 26.945312 166.621094 26.496094 166.949219 26.316406 C 167.402344 26.070312 167.953125 25.921875 168.46875 25.890625 C 170.171875 25.792969 171.875 25.738281 173.582031 25.734375 C 173.976562 25.730469 174.511719 25.871094 174.734375 26.144531 C 175.09375 26.585938 175.25 27.199219 175.515625 27.796875" fill-rule="evenodd"/><path fill="#FFBD59" d="M 231.222656 137.253906 C 231.097656 137.554688 231.082031 137.691406 231.011719 137.746094 C 229.566406 138.8125 228.144531 139.910156 226.652344 140.90625 C 226.203125 141.207031 225.472656 141.066406 225.296875 140.507812 C 225.175781 140.109375 225.351562 139.367188 225.667969 139.128906 C 226.613281 138.410156 227.398438 137.585938 228.113281 136.640625 C 228.691406 135.871094 229.609375 135.710938 230.410156 136.179688 C 230.796875 136.40625 231 136.949219 231.222656 137.253906" fill-rule="evenodd"/><path fill="#FFBD59" d="M 212.304688 26.800781 C 211.5625 26.496094 211.316406 25.21875 211.925781 24.589844 C 212.964844 23.515625 214.269531 23.132812 215.730469 23.355469 C 216.550781 23.480469 217.023438 24.675781 216.585938 25.421875 C 215.894531 26.613281 213.632812 27.339844 212.304688 26.800781" fill-rule="evenodd"/><path fill="#FFBD59" d="M 274.605469 128.582031 C 274.601562 128.925781 274.707031 129.304688 274.5625 129.507812 C 274.269531 129.925781 273.871094 130.292969 273.460938 130.605469 C 271.902344 131.773438 270.671875 131.789062 269.207031 130.527344 C 268.785156 130.164062 268.363281 129.445312 268.429688 128.953125 C 268.527344 128.238281 269.339844 128.226562 269.988281 128.269531 C 271.425781 128.363281 272.863281 128.464844 274.605469 128.582031" fill-rule="evenodd"/><path fill="#FFBD59" d="M 226.210938 147.761719 C 226.644531 147.597656 226.925781 147.445312 227.226562 147.390625 C 228.183594 147.21875 229.183594 147.039062 229.742188 148.136719 C 230.253906 149.152344 229.648438 150.691406 228.511719 151.433594 C 228.027344 151.75 227.105469 151.46875 226.921875 150.851562 C 226.628906 149.847656 226.445312 148.8125 226.210938 147.761719" fill-rule="evenodd"/><path fill="#FFBD59" d="M 212.09375 160.105469 C 211.578125 161.058594 210.425781 161.476562 209.722656 160.972656 C 209.066406 160.503906 208.875 159.484375 209.292969 158.699219 C 209.769531 157.800781 210.960938 157.371094 211.6875 157.835938 C 212.335938 158.25 212.523438 159.3125 212.09375 160.105469" fill-rule="evenodd"/><path fill="#FFBD59" d="M 296.078125 65.917969 C 296.632812 64.851562 297.4375 64.34375 298.097656 64.578125 C 298.84375 64.84375 298.972656 66.027344 298.347656 67.082031 C 298.1875 67.351562 298.003906 67.691406 297.75 67.796875 C 297.300781 67.980469 296.664062 68.222656 296.34375 68.039062 C 296.019531 67.847656 295.917969 67.179688 295.84375 66.699219 C 295.804688 66.421875 296.015625 66.105469 296.078125 65.917969" fill-rule="evenodd"/><path fill="#FFBD59" d="M 270.382812 37.273438 C 269.757812 38.257812 268.113281 38.808594 267.019531 38.402344 C 266.566406 38.234375 266.453125 37.382812 266.828125 37.035156 C 267.660156 36.265625 268.675781 36.027344 269.757812 36.085938 C 269.988281 36.097656 270.25 36.421875 270.402344 36.664062 C 270.492188 36.804688 270.394531 37.066406 270.382812 37.273438" fill-rule="evenodd"/><path fill="#FFBD59" d="M 204.089844 159.257812 C 204.703125 159.613281 204.984375 160.582031 204.65625 161.222656 C 204.269531 161.972656 203.203125 162.28125 202.449219 161.863281 C 201.789062 161.492188 201.507812 160.542969 201.871094 159.929688 C 202.328125 159.175781 203.394531 158.851562 204.089844 159.257812" fill-rule="evenodd"/><path fill="#FFBD59" d="M 207.824219 25.953125 C 207.957031 26.835938 208.175781 27.414062 208.078125 27.933594 C 207.972656 28.507812 207.046875 28.753906 206.523438 28.480469 C 206 28.203125 205.695312 27.359375 206.113281 26.886719 C 206.453125 26.503906 207.054688 26.355469 207.824219 25.953125" fill-rule="evenodd"/><path fill="#FFBD59" d="M 187.933594 12.78125 C 187.070312 12.882812 186.484375 13.101562 186 12.964844 C 185.460938 12.8125 185.375 11.875 185.785156 11.363281 C 186.125 10.9375 186.675781 10.617188 187.105469 11.019531 C 187.472656 11.363281 187.578125 11.984375 187.933594 12.78125" fill-rule="evenodd"/><path fill="#FFBD59" d="M 196.925781 19.09375 C 196.925781 18.246094 196.777344 17.632812 196.972656 17.164062 C 197.164062 16.695312 197.746094 16.507812 198.300781 16.789062 C 198.976562 17.132812 199.15625 18.109375 198.542969 18.597656 C 198.207031 18.867188 197.667969 18.878906 196.925781 19.09375" fill-rule="evenodd"/><path fill="#FFBD59" d="M 173.050781 34.78125 C 172.496094 34.328125 172.796875 33.839844 173.085938 33.421875 C 173.234375 33.207031 173.597656 32.960938 173.804688 33.003906 C 174.332031 33.109375 174.320312 33.574219 174.1875 33.996094 C 173.972656 34.691406 173.480469 35.027344 173.050781 34.78125" fill-rule="evenodd"/><path fill="#FFBD59" d="M 285.484375 44.820312 C 285.011719 44.941406 284.667969 45.109375 284.355469 45.066406 C 284.214844 45.046875 283.988281 44.433594 284.046875 44.386719 C 284.308594 44.164062 284.648438 43.996094 284.984375 43.933594 C 285.066406 43.917969 285.238281 44.375 285.484375 44.820312" fill-rule="evenodd"/><path fill="#FFBD59" d="M 267.964844 157.046875 C 267.550781 157.085938 267.234375 157.199219 266.976562 157.121094 C 266.511719 156.976562 266.367188 156.335938 266.738281 156.148438 C 266.972656 156.03125 267.382812 156.019531 267.585938 156.15625 C 267.785156 156.285156 267.816406 156.660156 267.964844 157.046875" fill-rule="evenodd"/><path fill="#FFBD59" d="M 50.417969 67.25 L 50.519531 67.441406 L 50.632812 67.285156 Z M 76.511719 139.894531 C 76.476562 139.96875 76.445312 140.042969 76.410156 140.117188 C 76.539062 140.132812 76.667969 140.148438 76.796875 140.167969 C 76.785156 140.085938 76.796875 139.976562 76.75 139.933594 C 76.699219 139.886719 76.59375 139.90625 76.511719 139.894531 Z M 22.917969 119.570312 C 22.75 119.609375 22.585938 119.648438 22.417969 119.6875 C 22.472656 119.859375 22.480469 120.109375 22.597656 120.175781 C 22.703125 120.238281 22.925781 120.105469 23.097656 120.058594 C 23.039062 119.894531 22.980469 119.734375 22.917969 119.570312 Z M 101.421875 25.34375 C 101.273438 25.398438 101.121094 25.445312 100.988281 25.527344 C 100.964844 25.542969 101.011719 25.765625 101.046875 25.777344 C 101.207031 25.804688 101.378906 25.789062 101.542969 25.792969 C 101.503906 25.644531 101.460938 25.492188 101.421875 25.34375 Z M 227.046875 45.214844 C 227.046875 44.875 227.046875 44.667969 227.046875 44.464844 C 226.765625 44.507812 226.464844 44.519531 226.203125 44.625 C 226.144531 44.648438 226.179688 45.160156 226.246094 45.179688 C 226.496094 45.253906 226.777344 45.214844 227.046875 45.214844 Z M 49.386719 61.644531 C 49.574219 61.632812 49.820312 61.679688 49.933594 61.582031 C 50.027344 61.503906 49.960938 61.242188 49.960938 61.0625 C 49.707031 61.085938 49.457031 61.105469 49.203125 61.128906 C 49.261719 61.300781 49.324219 61.472656 49.386719 61.644531 Z M 94.484375 36.488281 C 94.304688 36.128906 94.238281 35.75 94.050781 35.679688 C 93.835938 35.59375 93.515625 35.777344 93.238281 35.84375 C 93.324219 36.105469 93.339844 36.488281 93.515625 36.589844 C 93.71875 36.699219 94.058594 36.546875 94.484375 36.488281 Z M 116.699219 34.171875 C 116.433594 33.691406 116.347656 33.328125 116.164062 33.265625 C 115.933594 33.191406 115.53125 33.285156 115.371094 33.460938 C 115.253906 33.582031 115.351562 34.164062 115.445312 34.1875 C 115.765625 34.269531 116.125 34.195312 116.699219 34.171875 Z M 276.773438 85.296875 C 276.464844 84.878906 276.289062 84.46875 276.136719 84.476562 C 275.886719 84.488281 275.558594 84.730469 275.445312 84.964844 C 275.351562 85.152344 275.53125 85.46875 275.59375 85.734375 C 275.929688 85.609375 276.273438 85.480469 276.773438 85.296875 Z M 199.488281 45.652344 C 200 45.460938 200.390625 45.394531 200.652344 45.175781 C 200.757812 45.09375 200.582031 44.667969 200.53125 44.398438 C 200.171875 44.472656 199.777344 44.488281 199.464844 44.65625 C 199.363281 44.710938 199.46875 45.15625 199.488281 45.652344 Z M 211.335938 132.847656 C 211.753906 132.667969 212.199219 132.5 212.609375 132.273438 C 212.679688 132.234375 212.667969 131.832031 212.574219 131.765625 C 212.144531 131.457031 211.203125 131.726562 211.011719 132.210938 C 210.96875 132.316406 211.164062 132.523438 211.335938 132.847656 Z M 99.441406 141.8125 C 100.277344 140.894531 99.546875 140.273438 99.101562 139.644531 C 99.023438 139.535156 98.75 139.566406 98.554688 139.527344 C 98.449219 140.390625 98.511719 141.179688 99.441406 141.8125 Z M 33.054688 91.613281 C 34.296875 91.730469 34.804688 91.347656 34.90625 90.644531 C 34.957031 90.308594 34.726562 89.75 34.457031 89.597656 C 34.238281 89.480469 33.59375 89.71875 33.4375 89.976562 C 33.191406 90.386719 33.191406 90.949219 33.054688 91.613281 Z M 158.835938 117.390625 C 158.628906 117.476562 158.148438 117.527344 157.972656 117.792969 C 157.617188 118.3125 157.964844 119.09375 158.625 119.320312 C 158.851562 119.394531 159.277344 119.265625 159.441406 119.078125 C 159.910156 118.554688 159.707031 117.859375 158.835938 117.390625 Z M 98.734375 33.53125 C 99.253906 33.800781 99.683594 34.0625 100.144531 34.238281 C 100.261719 34.28125 100.558594 34.097656 100.640625 33.949219 C 100.722656 33.792969 100.710938 33.507812 100.617188 33.355469 C 100.195312 32.703125 99.941406 32.710938 98.734375 33.53125 Z M 206.066406 129.175781 C 205.6875 128.582031 205.558594 128.171875 205.28125 127.984375 C 204.769531 127.648438 204.203125 127.816406 203.996094 128.367188 C 203.898438 128.628906 204.152344 129.285156 204.367188 129.34375 C 204.777344 129.460938 205.273438 129.277344 206.066406 129.175781 Z M 107.171875 33.277344 C 107.597656 32.238281 107.285156 30.949219 106.472656 30.449219 C 106.328125 30.359375 105.78125 30.5625 105.730469 30.726562 C 105.441406 31.6875 105.722656 32.566406 106.410156 33.269531 C 106.542969 33.402344 106.941406 33.28125 107.171875 33.277344 Z M 150.128906 123.707031 C 149.929688 122.898438 149.824219 122.324219 149.609375 121.796875 C 149.585938 121.742188 148.769531 121.839844 148.546875 122.078125 C 148.113281 122.542969 148.246094 123.417969 148.796875 123.765625 C 149.046875 123.917969 149.5 123.75 150.128906 123.707031 Z M 273.859375 67.042969 C 274.304688 65.929688 274.617188 65.304688 274.792969 64.644531 C 274.84375 64.457031 274.566406 64.042969 274.347656 63.960938 C 274.109375 63.867188 273.703125 63.949219 273.488281 64.109375 C 272.746094 64.664062 272.777344 64.921875 273.859375 67.042969 Z M 241.191406 138.023438 C 244.207031 138.132812 244.933594 137.652344 244.898438 135.695312 C 243.503906 136.007812 242.382812 136.664062 241.191406 138.023438 Z M 28.792969 110.03125 C 29.179688 109.175781 29.179688 108.269531 28.675781 107.144531 C 28.542969 106.847656 27.996094 106.503906 27.722656 106.5625 C 27.410156 106.628906 27.007812 107.09375 26.957031 107.429688 C 26.804688 108.449219 27.269531 109.316406 28.007812 109.992188 C 28.160156 110.140625 28.554688 110.027344 28.792969 110.03125 Z M 29.539062 124.3125 C 30.25 123.148438 30.066406 122.003906 29.296875 121.539062 C 28.820312 121.246094 27.839844 121.390625 27.550781 121.789062 C 26.96875 122.589844 27.207031 124.203125 28.09375 124.535156 C 28.542969 124.707031 29.1875 124.378906 29.539062 124.3125 Z M 76.84375 50.511719 C 77.800781 48.292969 77.796875 48.292969 77.414062 47.160156 C 76.296875 47.949219 75.1875 48.738281 73.980469 49.589844 C 74.675781 50.910156 75.671875 50.757812 76.84375 50.511719 Z M 112.710938 131.390625 C 110.851562 132.277344 110.621094 133.652344 112.171875 134.851562 C 112.4375 135.058594 113.058594 135.136719 113.300781 134.964844 C 113.671875 134.699219 114.082031 134.164062 114.0625 133.757812 C 114.03125 132.789062 113.503906 131.984375 112.710938 131.390625 Z M 47.273438 137.71875 C 47.601562 139.785156 47.789062 141.140625 48.046875 142.476562 C 48.171875 143.109375 49.199219 143.277344 49.601562 142.734375 C 49.839844 142.417969 50.125 141.949219 50.054688 141.621094 C 49.832031 140.59375 49.535156 139.558594 49.09375 138.605469 C 48.941406 138.28125 48.28125 138.1875 47.273438 137.71875 Z M 91.960938 137.992188 C 92.921875 137.320312 94.132812 136.855469 94.648438 135.667969 C 94.25 134.449219 93.472656 133.964844 92.40625 134.054688 C 91.457031 134.140625 90.835938 134.8125 90.597656 135.667969 C 90.304688 136.726562 90.738281 137.527344 91.960938 137.992188 Z M 271.589844 64.019531 C 270.859375 62.496094 270.289062 61.300781 269.738281 60.148438 C 268.625 60.164062 267.730469 60.300781 267.164062 61.371094 C 268.082031 62.492188 268.984375 63.59375 269.964844 64.785156 C 270.445312 64.558594 270.894531 64.347656 271.589844 64.019531 Z M 267.25 50.671875 C 265.871094 51.355469 265.722656 52.25 266.125 53.234375 C 266.523438 54.214844 266.996094 55.230469 268.238281 55.402344 C 268.902344 55.492188 269.527344 55.285156 269.90625 54.695312 C 270.3125 54.054688 270.066406 53.472656 269.578125 52.980469 C 268.839844 52.238281 268.089844 51.503906 267.25 50.671875 Z M 27.0625 116.859375 C 28.429688 117.757812 29.433594 118.503906 30.523438 119.082031 C 30.902344 119.28125 31.558594 119.199219 31.96875 119 C 32.222656 118.878906 32.421875 118.246094 32.339844 117.917969 C 32.136719 117.113281 31.820312 116.320312 31.425781 115.589844 C 31.253906 115.273438 30.75 114.898438 30.433594 114.929688 C 29.085938 115.0625 27.796875 115.414062 27.0625 116.859375 Z M 133.546875 123.648438 C 133.425781 123.867188 133.308594 124.085938 133.1875 124.304688 C 135.484375 124.984375 135.765625 126.605469 135.632812 128.441406 C 135.609375 128.738281 135.734375 129.074219 135.878906 129.34375 C 135.960938 129.496094 136.214844 129.632812 136.394531 129.640625 C 136.570312 129.644531 136.863281 129.519531 136.921875 129.375 C 137.765625 127.328125 138.171875 125.277344 136.632812 123.347656 C 136.445312 123.113281 136.144531 122.96875 135.773438 122.6875 C 135.046875 123 134.296875 123.324219 133.546875 123.648438 Z M 287.1875 76.695312 C 286.109375 77.097656 285.296875 77.304688 284.585938 77.695312 C 283.984375 78.023438 283.761719 78.707031 284.035156 79.347656 C 284.59375 80.652344 285.535156 81.625 286.914062 82.082031 C 287.796875 82.375 288.707031 81.59375 288.476562 80.6875 C 288.164062 79.476562 287.714844 78.296875 287.1875 76.695312 Z M 171.066406 138.128906 C 171.996094 138.324219 172.710938 138.464844 173.421875 138.621094 C 174.707031 138.90625 175.199219 139.554688 175.070312 140.886719 C 175.015625 141.410156 174.777344 141.917969 174.738281 142.441406 C 174.640625 143.664062 175.730469 144.375 176.890625 143.878906 C 177.941406 143.433594 178.636719 142.695312 178.371094 142.058594 C 177.632812 140.316406 177.226562 138.402344 175.898438 136.9375 C 174.882812 135.820312 173.492188 135.644531 172.125 135.4375 C 171.949219 135.410156 171.746094 135.585938 171.3125 135.773438 C 171.246094 136.429688 171.160156 137.214844 171.066406 138.128906 Z M 286.859375 124.367188 C 285.570312 124.667969 284.921875 125.664062 284.375 126.726562 C 283.738281 127.964844 282.496094 128.28125 281.050781 127.625 C 280.761719 127.492188 280.429688 127.371094 280.21875 127.148438 C 278.59375 125.476562 276.460938 125.160156 274.3125 124.941406 C 271.429688 124.644531 268.542969 124.394531 265.65625 124.148438 C 265.125 124.105469 264.578125 124.125 264.050781 124.203125 C 262.96875 124.363281 262.296875 125.15625 262.371094 126.207031 C 262.429688 127.0625 262.589844 127.914062 263.414062 128.421875 C 264.421875 128.609375 264.601562 127.660156 265.132812 127.203125 C 265.714844 126.707031 265.921875 126.773438 266.867188 127.746094 C 266.804688 127.941406 266.804688 128.210938 266.667969 128.324219 C 265.90625 128.980469 265.289062 129.625 265.722656 130.789062 C 266.167969 132 266.859375 132.902344 268.195312 133.019531 C 270.863281 133.25 273.425781 134.265625 276.167969 134.003906 C 276.878906 133.933594 277.675781 134.140625 278.339844 134.433594 C 279.675781 135.019531 279.769531 136.738281 278.582031 137.566406 C 277.351562 138.421875 275.96875 138.625 274.582031 138.179688 C 273.40625 137.800781 272.359375 137.742188 271.160156 138.195312 C 270.308594 138.523438 269.273438 138.480469 268.328125 138.421875 C 267.261719 138.355469 266.191406 138.144531 265.152344 137.90625 C 263.34375 137.484375 261.738281 137.578125 260.566406 139.269531 C 260.476562 139.402344 260.175781 139.390625 259.96875 139.449219 C 259.765625 139.394531 259.457031 139.410156 259.371094 139.28125 C 258.355469 137.679688 256.957031 137.015625 255.035156 137.136719 C 254.105469 137.195312 253.160156 136.769531 252.214844 136.601562 C 251.535156 136.480469 250.902344 136.585938 250.613281 137.320312 C 250.269531 138.183594 250.570312 139.238281 251.320312 139.558594 C 251.898438 139.804688 252.546875 139.957031 253.175781 139.996094 C 254.136719 140.054688 255.105469 139.9375 256.070312 139.972656 C 257.1875 140.015625 258.171875 140.410156 258.898438 141.304688 C 259.761719 142.367188 259.25 143.867188 257.917969 143.984375 C 256.96875 144.070312 255.945312 144.085938 255.050781 143.820312 C 252.515625 143.054688 250 142.914062 247.417969 143.496094 C 246.144531 143.78125 244.921875 143.585938 243.636719 143.175781 C 242.019531 142.664062 240.285156 142.410156 238.589844 142.328125 C 235.632812 142.191406 234.042969 140.210938 232.5 138.148438 C 232.082031 137.589844 232.34375 136.894531 232.875 136.417969 C 233.347656 135.988281 233.894531 135.628906 234.34375 135.175781 C 234.769531 134.742188 234.515625 133.765625 233.921875 133.539062 C 233.429688 133.355469 232.898438 133.191406 232.378906 133.167969 C 230.238281 133.070312 228.097656 133 225.957031 132.984375 C 225.011719 132.980469 224.066406 133.140625 223.328125 133.207031 C 223.019531 133.617188 222.820312 133.769531 222.78125 133.953125 C 222.242188 136.414062 222.242188 136.457031 219.648438 136.199219 C 218.617188 136.09375 217.671875 136.164062 217.003906 136.96875 C 216.640625 137.410156 216.523438 138.054688 216.230469 138.769531 C 217.113281 139.097656 217.808594 139.320312 218.472656 139.613281 C 219.4375 140.046875 219.820312 140.71875 219.628906 141.652344 C 219.242188 143.542969 218.828125 145.425781 218.410156 147.308594 C 218.292969 147.828125 218.175781 148.367188 217.941406 148.839844 C 217.589844 149.554688 216.988281 150.011719 216.144531 149.949219 C 215.414062 149.898438 214.84375 149.386719 214.808594 148.753906 C 214.703125 146.605469 213.019531 145.40625 211.980469 143.847656 C 211.265625 142.769531 210.082031 143.039062 209.453125 144.214844 C 209.003906 145.054688 208.570312 145.921875 207.996094 146.671875 C 207.496094 147.320312 206.527344 147.332031 205.996094 146.738281 C 205.429688 146.105469 204.917969 145.402344 204.488281 144.671875 C 203.769531 143.453125 204.046875 142.757812 205.386719 142.152344 C 205.582031 142.0625 205.78125 141.941406 205.988281 141.925781 C 208.480469 141.691406 209.808594 139.703125 211.472656 138.253906 C 212.488281 137.363281 212.414062 137.023438 211.242188 135.050781 C 210.816406 135.285156 210.304688 135.445312 209.964844 135.777344 C 208.707031 137.011719 207.316406 137 205.792969 136.402344 C 205.117188 136.140625 204.410156 135.972656 203.5625 135.71875 C 203.285156 136.320312 203.015625 136.765625 202.875 137.246094 C 202.699219 137.859375 202.703125 138.535156 202.492188 139.132812 C 201.882812 140.847656 199.710938 141.398438 198.699219 139.832031 C 198.234375 139.113281 197.816406 138.230469 196.800781 138.300781 C 195.503906 138.390625 194.253906 138.773438 193.300781 139.722656 C 192.855469 140.171875 192.621094 140.820312 192.191406 141.292969 C 191.613281 141.929688 190.585938 141.980469 189.816406 141.515625 C 188.527344 140.734375 188.355469 139.148438 189.648438 138.398438 C 191.933594 137.070312 192.808594 134.746094 194.078125 132.683594 C 194.113281 132.628906 194.019531 132.496094 193.929688 132.253906 C 192.71875 131.964844 191.410156 131.578125 190.078125 131.390625 C 189.675781 131.335938 188.867188 131.777344 188.808594 132.097656 C 188.46875 133.851562 187.28125 134.84375 185.945312 135.789062 C 185.371094 136.195312 185.214844 136.851562 185.46875 137.519531 C 185.65625 138.019531 185.972656 138.46875 186.171875 138.964844 C 187.125 141.347656 186.425781 144.375 184.550781 146.0625 C 183.789062 146.75 182.863281 147.121094 181.878906 146.820312 C 180.722656 146.464844 179.609375 146.242188 178.417969 146.632812 C 178.128906 146.726562 177.722656 146.765625 177.472656 146.632812 C 175.566406 145.636719 173.945312 146.472656 172.3125 147.351562 C 172.035156 147.5 171.726562 147.609375 171.417969 147.699219 C 170.648438 147.921875 169.8125 147.429688 169.78125 146.617188 C 169.742188 145.675781 169.882812 144.722656 169.945312 143.761719 C 169.21875 142.449219 168.203125 141.953125 166.742188 142.589844 C 166.160156 142.84375 165.546875 143.03125 164.792969 143.304688 C 164.957031 144.425781 165.132812 145.457031 165.246094 146.496094 C 165.339844 147.320312 164.996094 147.976562 164.226562 148.328125 C 163.597656 148.609375 162.929688 148.644531 162.476562 148.035156 C 161.972656 147.34375 161.527344 146.601562 161.121094 145.847656 C 160.097656 143.957031 160.246094 143.1875 162.203125 142.34375 C 163.554688 141.761719 164.117188 140.683594 164.714844 139.5625 C 165.171875 138.703125 164.871094 137.914062 164.203125 137.140625 C 162.789062 136.996094 161.527344 137.628906 160.21875 137.894531 C 160.011719 138.25 159.753906 138.507812 159.710938 138.792969 C 159.4375 140.628906 159.121094 142.375 157.207031 143.363281 C 156.734375 143.609375 156.585938 144.441406 156.238281 144.972656 C 156.011719 145.328125 155.742188 145.675781 155.421875 145.9375 C 154.835938 146.410156 153.867188 146.246094 153.40625 145.632812 C 152.976562 145.058594 152.910156 144.433594 153.386719 143.867188 C 154.050781 143.074219 155.167969 142.636719 155.101562 141.308594 C 155.046875 140.171875 154.152344 139.703125 153.539062 138.992188 C 152.847656 138.1875 152.738281 137.246094 153.242188 136.636719 C 153.84375 135.90625 154.625 135.652344 155.542969 136.023438 C 155.933594 136.179688 156.316406 136.347656 156.847656 136.570312 C 157.101562 136.195312 157.414062 135.890625 157.53125 135.523438 C 157.929688 134.277344 158.832031 133.605469 159.992188 133.171875 C 160.589844 132.949219 161.230469 132.753906 161.738281 132.390625 C 162.214844 132.046875 162.253906 131.402344 161.851562 130.96875 C 161.617188 130.710938 161.015625 130.46875 160.773438 130.597656 C 159.121094 131.464844 157.425781 131.941406 155.539062 131.960938 C 154.882812 131.964844 154.238281 132.636719 153.578125 132.976562 C 152.988281 133.277344 152.328125 133.519531 151.753906 133.082031 C 151.09375 132.578125 150.976562 131.824219 151.210938 131.039062 C 151.386719 130.441406 151.605469 129.859375 151.792969 129.300781 C 150.597656 128.164062 149.539062 127.148438 148.472656 126.132812 C 147.585938 126.046875 147.34375 126.667969 147.320312 127.332031 C 147.285156 128.292969 147.414062 129.257812 147.414062 130.222656 C 147.417969 131.152344 146.96875 131.875 146.179688 132.351562 C 144.972656 133.089844 143.707031 133.667969 142.226562 133.367188 C 141.808594 133.28125 141.390625 133.128906 140.964844 133.113281 C 139.84375 133.074219 138.90625 133.914062 138.800781 135.054688 C 138.695312 136.117188 138.710938 137.191406 138.570312 138.246094 C 138.265625 140.484375 138.570312 142.511719 140.390625 144.0625 C 141.164062 144.71875 141.304688 145.558594 140.917969 146.386719 C 140.519531 147.234375 139.957031 148.035156 139.351562 148.753906 C 139.152344 148.980469 138.5 149.03125 138.1875 148.882812 C 137.875 148.734375 137.539062 148.238281 137.539062 147.894531 C 137.546875 147.058594 137.746094 146.226562 137.867188 145.375 C 137.285156 144.855469 136.566406 144.460938 136.214844 143.855469 C 135.519531 142.652344 134.613281 141.976562 133.246094 141.648438 C 132.070312 141.367188 131.695312 140.246094 132.214844 139.066406 C 132.683594 137.996094 133.277344 136.988281 133.871094 135.847656 C 132.941406 135.082031 131.808594 134.90625 130.847656 135.046875 C 128.957031 135.324219 127.492188 134.667969 126.074219 133.59375 C 125.84375 133.417969 125.488281 133.410156 125.246094 133.339844 C 123.914062 134.476562 122.636719 135.5625 121.160156 136.820312 C 121.195312 137.664062 121.460938 138.839844 121.242188 139.917969 C 121.035156 140.921875 120.316406 141.824219 119.800781 142.820312 C 120.25 143.824219 120.679688 144.773438 121.101562 145.722656 C 120.648438 147.210938 118.652344 147.796875 119.054688 149.710938 C 119.222656 149.855469 119.429688 150.164062 119.695312 150.230469 C 120.730469 150.488281 121.566406 150.929688 121.445312 152.148438 C 121.3125 153.472656 120.847656 154.660156 119.515625 155.265625 C 118.941406 155.523438 118.070312 155.25 117.871094 154.664062 C 117.625 153.964844 117.511719 153.222656 117.308594 152.355469 C 116.90625 152.183594 116.390625 152.023438 115.945312 151.753906 C 114.863281 151.101562 114.566406 150.113281 115.160156 149.023438 C 115.519531 148.367188 116.03125 147.796875 116.425781 147.160156 C 116.746094 146.640625 117 146.074219 117.28125 145.53125 C 116.296875 144.863281 115.796875 145.785156 115.117188 145.9375 C 114.003906 146.183594 113.097656 145.640625 113.089844 144.542969 C 113.078125 143.808594 113.261719 143.074219 113.371094 142.242188 C 112.386719 141.609375 111.417969 140.984375 110.320312 140.277344 C 109.933594 140.839844 109.570312 141.230469 109.371094 141.691406 C 109.019531 142.472656 108.800781 143.3125 108.476562 144.105469 C 107.460938 146.59375 106.03125 147.109375 103.679688 145.855469 C 103.308594 145.65625 102.964844 145.402344 102.542969 145.132812 C 101.128906 145.550781 99.691406 146.238281 98.292969 145.03125 C 98.082031 144.847656 97.472656 145.027344 97.09375 145.167969 C 96.5 145.386719 95.949219 145.71875 95.4375 145.976562 C 94.503906 145.0625 93.839844 144.417969 93.121094 143.722656 C 91.941406 144.199219 90.863281 144.636719 89.664062 145.125 C 89.144531 144.78125 88.613281 144.457031 88.109375 144.085938 C 87.632812 143.734375 87.136719 143.609375 86.617188 143.90625 C 85.988281 144.265625 85.703125 145.167969 85.976562 145.890625 C 86.226562 146.550781 86.707031 146.929688 87.445312 146.898438 C 87.660156 146.886719 87.871094 146.824219 88.082031 146.8125 C 90.101562 146.699219 90.21875 146.800781 90.660156 148.730469 C 90.847656 149.554688 91.121094 150.363281 91.359375 151.175781 C 91.757812 152.519531 91.4375 153.304688 90.21875 153.753906 C 89.019531 154.203125 87.796875 154.597656 86.570312 154.980469 C 85.625 155.277344 84.824219 154.878906 84.53125 153.949219 C 84.339844 153.339844 84.308594 152.679688 84.113281 152.070312 C 83.960938 151.59375 83.671875 151.15625 83.375 150.574219 C 82.472656 151.066406 81.769531 151.519531 81.003906 151.851562 C 80.039062 152.269531 78.964844 151.410156 79.144531 150.371094 C 79.234375 149.859375 79.480469 149.363281 79.722656 148.902344 C 80.074219 148.238281 80.535156 147.636719 80.851562 146.960938 C 81.136719 146.355469 81.203125 145.605469 80.636719 145.183594 C 80.167969 144.835938 79.488281 144.769531 78.898438 144.597656 C 78.816406 144.574219 78.699219 144.675781 78.597656 144.707031 C 76.132812 145.425781 76.128906 145.421875 74.605469 143.097656 C 73.371094 142.96875 72.148438 143.054688 70.964844 143.75 C 70.234375 144.183594 69.40625 144.46875 68.605469 144.761719 C 67.058594 145.332031 66.148438 146.390625 65.855469 148.027344 C 66.730469 148.867188 67.628906 149.601562 68.359375 150.472656 C 69.039062 151.285156 69.542969 152.25 70.125 153.148438 C 70.183594 153.238281 70.242188 153.328125 70.296875 153.425781 C 70.933594 154.5625 70.90625 155.488281 70.214844 156.0625 C 69.484375 156.675781 68.78125 156.542969 67.707031 155.625 C 67.222656 155.210938 66.75 154.757812 66.203125 154.441406 C 65.296875 153.914062 64.816406 153.125 64.542969 152.164062 C 64.425781 151.75 64.429688 151.242188 64.183594 150.9375 C 62.644531 149.046875 62.25 146.96875 62.898438 144.632812 C 62.996094 144.28125 62.832031 143.742188 62.601562 143.429688 C 61.847656 142.417969 61.011719 141.46875 60.046875 140.304688 C 59.644531 140.90625 59.304688 141.285156 59.117188 141.726562 C 58.617188 142.910156 58.234375 144.144531 57.699219 145.308594 C 57.15625 146.476562 56.585938 147.582031 56.464844 148.925781 C 56.394531 149.71875 55.953125 150.574219 55.441406 151.214844 C 54.425781 152.484375 52.746094 152.21875 52.0625 150.738281 C 51.796875 150.167969 51.734375 149.503906 51.613281 149.015625 C 51.234375 148.847656 51 148.648438 50.867188 148.699219 C 48 149.84375 46.179688 148.179688 44.480469 146.296875 C 43.554688 145.269531 42.757812 144.128906 41.886719 143.050781 C 40.679688 141.554688 40.855469 139.933594 42.480469 138.9375 C 43.460938 138.335938 44.574219 137.957031 45.574219 137.5 C 45.570312 136.292969 44.992188 135.792969 44.046875 135.632812 C 43.925781 135.679688 43.804688 135.695312 43.726562 135.757812 C 42.957031 136.398438 42.828125 137.972656 41.4375 137.660156 C 39.867188 137.308594 38.429688 136.675781 37.738281 134.933594 C 36.941406 132.910156 35.078125 131.710938 33.640625 130.1875 C 33.523438 130.0625 33.242188 130.089844 32.835938 130.007812 C 32.421875 130.28125 31.90625 130.632812 31.367188 130.96875 C 30.46875 131.53125 29.574219 131.644531 28.691406 130.921875 C 28.359375 130.648438 28.042969 130.238281 27.667969 130.164062 C 25.960938 129.820312 24.789062 128.84375 23.910156 127.398438 C 23.503906 126.722656 22.816406 126.398438 22.023438 126.296875 C 21.601562 126.238281 21.183594 126.132812 20.761719 126.042969 C 17.773438 125.40625 17.796875 125.402344 17.1875 122.269531 C 17.074219 121.660156 16.726562 121.09375 16.453125 120.523438 C 16.179688 119.949219 15.777344 119.421875 15.574219 118.824219 C 15.234375 117.816406 15.839844 116.816406 16.898438 116.660156 C 17.730469 116.535156 18.585938 116.570312 19.363281 116.539062 C 20.28125 114.890625 20.292969 114.890625 20.050781 112.464844 C 18.984375 111.53125 17.867188 112.136719 16.738281 112.355469 C 15.605469 112.574219 14.808594 111.933594 14.832031 110.820312 C 14.839844 110.429688 15.074219 110.03125 15.269531 109.671875 C 15.359375 109.507812 15.609375 109.425781 15.792969 109.316406 C 17.910156 108.019531 18.0625 107.339844 16.210938 105.933594 C 14.960938 104.984375 13.945312 104.054688 13.644531 102.429688 C 13.578125 102.042969 12.921875 101.714844 12.480469 101.457031 C 11.773438 101.046875 11.375 100.472656 11.242188 99.679688 C 11.109375 98.878906 11.554688 98.171875 12.359375 97.988281 C 13.050781 97.828125 13.652344 97.988281 13.984375 98.667969 C 14.171875 99.050781 14.261719 99.476562 14.40625 99.878906 C 14.511719 100.179688 14.625 100.472656 14.730469 100.753906 C 16.507812 101.832031 18.195312 102.953125 19.320312 104.738281 C 19.449219 104.945312 19.949219 105.132812 20.132812 105.039062 C 20.46875 104.871094 20.875 104.519531 20.945312 104.1875 C 21.160156 103.113281 21.136719 102.058594 20.191406 101.230469 C 19.203125 100.359375 18.929688 99.269531 19.40625 98.019531 C 19.839844 96.875 19.199219 95.96875 18.796875 94.976562 C 18.15625 93.398438 18.96875 92.175781 20.667969 92.105469 C 21.410156 92.074219 22.152344 92.285156 22.902344 92.316406 C 23.414062 92.339844 23.929688 92.242188 24.496094 92.195312 C 24.648438 91.683594 24.855469 91.289062 24.871094 90.882812 C 24.914062 89.828125 25.308594 89.03125 26.25 88.511719 C 27.902344 87.59375 29.152344 86.320312 29.78125 84.496094 C 30.25 83.125 31.675781 82.863281 32.707031 82.257812 C 32.699219 81.761719 32.734375 81.441406 32.683594 81.136719 C 32.59375 80.625 32.453125 80.125 32.328125 79.597656 C 32.027344 79.734375 31.78125 79.765625 31.695312 79.902344 C 31.460938 80.257812 31.242188 80.640625 31.109375 81.046875 C 30.242188 83.691406 27.902344 84.664062 25.714844 85.777344 C 24.820312 86.230469 23.828125 85.929688 23.589844 85.007812 C 23.226562 83.582031 22.238281 82.894531 21.113281 82.234375 C 20.648438 81.964844 20.191406 81.679688 19.765625 81.359375 C 18.914062 80.726562 18.664062 79.949219 19.007812 79.132812 C 19.351562 78.328125 20.179688 77.953125 21.179688 78.375 C 22.148438 78.78125 23.125 79.277344 23.933594 79.941406 C 24.6875 80.5625 25.375 80.890625 26.242188 80.386719 C 27.0625 79.90625 27.449219 79.097656 27.222656 78.1875 C 26.757812 76.320312 26.3125 74.429688 25.136719 72.832031 C 24.753906 72.316406 24.304688 71.839844 24.003906 71.277344 C 23.359375 70.082031 24.230469 68.792969 25.59375 68.914062 C 27.148438 69.058594 28.429688 69.871094 29.652344 70.75 C 30.082031 71.058594 30.367188 71.546875 30.769531 71.902344 C 31.226562 72.316406 32.113281 72.199219 32.492188 71.695312 C 32.679688 71.441406 32.863281 71.160156 32.960938 70.863281 C 33.40625 69.488281 34.277344 69.125 35.695312 69.359375 C 37.988281 69.738281 38.75 69.234375 39.660156 67.15625 C 40.648438 64.910156 41.605469 62.652344 42.621094 60.421875 C 42.875 59.871094 43.289062 59.394531 43.632812 58.878906 C 45.003906 59.265625 45.148438 60.222656 45.011719 61.199219 C 44.84375 62.441406 44.515625 63.65625 44.246094 64.917969 C 44.617188 64.898438 44.917969 64.96875 45.007812 64.863281 C 46.226562 63.390625 46.917969 61.792969 46.140625 59.859375 C 45.941406 59.363281 45.769531 58.847656 45.648438 58.328125 C 45.382812 57.171875 45.683594 56.285156 46.523438 55.789062 C 47.519531 55.207031 48.585938 55.085938 49.5625 55.746094 C 50.078125 56.089844 50.394531 56.722656 50.867188 57.144531 C 51.132812 57.378906 51.542969 57.449219 51.917969 57.609375 C 52.015625 57.203125 52.167969 56.945312 52.09375 56.824219 C 51.167969 55.277344 51.296875 54.09375 52.945312 53.03125 C 54.09375 52.292969 54.386719 50.988281 54.285156 49.601562 C 54.171875 48.035156 55.496094 47.523438 56.65625 47.84375 C 57.367188 48.039062 58.101562 48.335938 58.683594 48.773438 C 59.75 49.566406 60.824219 49.660156 62.019531 49.207031 C 62.320312 49.09375 62.640625 49.039062 62.957031 48.96875 C 63.847656 48.773438 64.636719 48.90625 65.351562 49.542969 C 66.070312 50.179688 66.914062 50.683594 67.597656 51.351562 C 68.078125 51.816406 68.160156 52.507812 67.878906 53.152344 C 67.605469 53.773438 66.644531 54.148438 65.9375 53.929688 C 65.632812 53.835938 65.320312 53.710938 65.066406 53.527344 C 64.054688 52.777344 62.925781 52.582031 61.707031 52.707031 C 61.390625 52.742188 61.023438 52.816406 60.746094 52.707031 C 58.230469 51.707031 57.039062 53.601562 55.652344 55.023438 C 55.199219 55.488281 55.417969 56.425781 56.050781 56.644531 C 56.839844 56.914062 57.789062 57.351562 58.488281 57.132812 C 60.789062 56.417969 62.714844 56.792969 64.367188 58.671875 C 65.945312 58.054688 67.421875 57.476562 68.839844 56.921875 C 69.179688 55.324219 69.480469 53.894531 69.824219 52.265625 C 69.429688 51.757812 68.847656 51.132812 68.40625 50.417969 C 67.925781 49.632812 68.308594 48.609375 69.179688 48.300781 C 69.871094 48.058594 70.601562 47.9375 71.253906 47.777344 C 72.65625 44.109375 71.835938 40.9375 69.761719 37.949219 C 69.335938 37.335938 68.9375 36.683594 68.667969 35.992188 C 68.203125 34.828125 69 33.722656 70.265625 33.925781 C 71.402344 34.109375 72.511719 34.582031 73.570312 35.058594 C 74.519531 35.484375 75.390625 36.089844 76.257812 36.59375 C 77.273438 35.695312 78.023438 34.691406 79.019531 34.246094 C 79.9375 33.835938 81.140625 34.105469 82.191406 33.929688 C 83.5625 33.703125 84.945312 33.441406 86.257812 32.996094 C 88.179688 32.347656 88.351562 31.171875 86.839844 29.695312 C 86.695312 29.554688 86.46875 29.492188 86.105469 29.304688 C 85.550781 29.503906 84.878906 29.832031 84.167969 29.984375 C 82.253906 30.402344 80.5 29.269531 79.992188 27.371094 C 79.78125 26.582031 80.234375 25.761719 81.050781 25.707031 C 81.773438 25.660156 82.570312 25.699219 83.234375 25.957031 C 84.121094 26.300781 84.910156 26.894531 85.828125 27.429688 C 87.105469 27.097656 88.398438 26.601562 89.84375 27.117188 C 90.761719 27.445312 91.445312 26.765625 91.980469 25.824219 C 91.820312 25.207031 91.589844 24.503906 91.464844 23.777344 C 91.289062 22.710938 92.332031 21.949219 93.347656 22.355469 C 94.117188 22.667969 94.570312 23.28125 94.636719 24.0625 C 94.691406 24.6875 94.476562 25.332031 94.492188 25.964844 C 94.496094 26.21875 94.753906 26.578125 94.988281 26.683594 C 95.234375 26.792969 95.703125 26.773438 95.878906 26.605469 C 97.15625 25.378906 98.910156 24.519531 99.019531 22.375 C 99.054688 21.777344 99.515625 21.203125 99.929688 20.285156 C 99.738281 19.832031 99.328125 19.167969 99.195312 18.453125 C 99.113281 18.023438 99.328125 17.367188 99.648438 17.066406 C 100.15625 16.59375 100.871094 16.722656 101.433594 17.128906 C 102.097656 17.613281 102.328125 18.316406 102.210938 19.117188 C 102.121094 19.75 101.878906 20.371094 101.867188 21 C 101.84375 22.242188 102.753906 22.957031 103.980469 22.738281 C 104.40625 22.660156 104.804688 22.472656 105.226562 22.402344 C 107.3125 22.050781 108.066406 22.402344 109.21875 24.25 C 109.652344 24.941406 109.769531 25.9375 110.902344 25.921875 C 112.628906 23.695312 112.628906 23.695312 115.167969 22.96875 C 115.390625 22.300781 115.542969 21.554688 115.875 20.902344 C 116.347656 19.992188 116.503906 19.121094 116.175781 18.125 C 115.933594 17.378906 115.925781 16.59375 116.832031 16.230469 C 117.648438 15.90625 118.539062 16.160156 118.953125 17.167969 C 119.613281 18.773438 121.039062 19.585938 122.175781 20.691406 C 122.683594 21.179688 123.5 21.332031 124.132812 21.710938 C 124.582031 21.976562 125.035156 22.304688 125.34375 22.710938 C 125.992188 23.570312 125.429688 24.8125 124.375 24.878906 C 123.855469 24.914062 123.320312 24.785156 122.792969 24.71875 C 121.53125 24.558594 121.53125 24.554688 120.03125 25.761719 C 120.019531 26.730469 120.898438 26.863281 121.464844 27.304688 C 122.859375 28.378906 123 29.070312 122.175781 30.578125 C 121.917969 31.042969 121.449219 31.484375 121.40625 31.964844 C 121.277344 33.398438 120.21875 34.183594 119.316406 35.082031 C 119.417969 35.59375 119.445312 36.027344 119.589844 36.414062 C 119.828125 37.027344 120.199219 37.601562 120.957031 37.582031 C 121.757812 37.566406 122.726562 37.1875 122.730469 36.472656 C 122.746094 34.21875 125.066406 33.230469 125.394531 31.15625 C 125.507812 30.429688 126.359375 30.058594 127.214844 30.21875 C 127.394531 30.339844 127.683594 30.421875 127.726562 30.574219 C 128.203125 32.257812 129.320312 33.234375 130.929688 33.863281 C 132.117188 34.332031 133.277344 34.957031 134.316406 35.703125 C 135.164062 36.304688 135.953125 37.101562 136.515625 37.972656 C 137.179688 39.003906 136.433594 40.199219 135.210938 40.269531 C 134.789062 40.296875 134.359375 40.183594 133.933594 40.164062 C 133.515625 40.140625 133.101562 40.160156 132.796875 40.160156 C 131.945312 40.910156 132.226562 41.628906 132.570312 42.304688 C 132.980469 43.113281 133.613281 43.386719 134.421875 43.199219 C 134.523438 43.175781 134.636719 43.15625 134.722656 43.101562 C 136.515625 41.984375 137.957031 42.527344 139.28125 43.972656 C 139.492188 44.199219 140.007812 44.144531 140.71875 44.289062 C 140.527344 43.496094 140.398438 43.019531 140.296875 42.535156 C 139.980469 41.023438 140.722656 40.242188 142.203125 40.609375 C 142.816406 40.761719 143.625 40.921875 143.933594 41.367188 C 145.453125 43.558594 147.800781 43.328125 150.058594 43.75 C 150.441406 43.34375 150.800781 42.96875 151.148438 42.582031 C 152.816406 40.730469 154.890625 39.894531 157.210938 40.949219 C 159.238281 41.875 161.023438 41.203125 162.792969 40.578125 C 163.601562 40.296875 164.1875 39.324219 164.816406 38.609375 C 165.390625 37.960938 165.21875 37.214844 164.933594 36.484375 C 164.855469 36.289062 164.8125 36.074219 164.789062 35.859375 C 164.6875 34.882812 165.375 34.242188 166.386719 34.367188 C 167.488281 34.503906 168.574219 34.820312 169.117188 35.839844 C 170.238281 37.949219 172.082031 39.179688 174.082031 40.269531 C 174.367188 40.421875 174.710938 40.546875 174.894531 40.785156 C 176.683594 43.128906 179.59375 43.699219 181.894531 45.238281 C 183.132812 46.066406 183.695312 45.832031 184.558594 44.589844 C 184.863281 44.148438 185.171875 43.699219 185.414062 43.222656 C 186.105469 41.867188 187.207031 41.09375 188.699219 40.933594 C 190.582031 40.730469 191.835938 39.667969 192.78125 38.128906 C 192.894531 37.945312 192.988281 37.753906 193.097656 37.566406 C 193.722656 36.53125 194.574219 35.960938 195.78125 36.496094 C 197.125 37.089844 198.046875 36.550781 198.988281 35.355469 C 198.796875 34.792969 198.507812 34.128906 198.339844 33.433594 C 198.050781 32.222656 199.042969 31.316406 200.246094 31.675781 C 200.757812 31.828125 201.246094 32.070312 201.722656 32.308594 C 202.992188 32.945312 204.339844 33.214844 205.746094 33.367188 C 207.183594 33.519531 208.488281 33.441406 209.769531 32.660156 C 210.484375 32.222656 211.347656 31.988281 212.175781 31.78125 C 213.28125 31.503906 214.285156 31.710938 215.089844 32.636719 C 215.71875 33.355469 216.296875 34.179688 217.367188 34.289062 C 219.707031 32.929688 219.707031 32.929688 221.929688 32.675781 C 222.15625 31.941406 222.273438 31.070312 222.683594 30.371094 C 223.273438 29.363281 223.496094 28.441406 222.980469 27.359375 C 222.855469 27.101562 222.859375 26.671875 222.996094 26.433594 C 223.191406 26.097656 223.535156 25.699219 223.871094 25.632812 C 224.195312 25.574219 224.796875 25.8125 224.921875 26.082031 C 225.226562 26.746094 225.332031 27.5 225.507812 28.191406 C 226.742188 28.652344 227.820312 29.085938 228.515625 30.160156 C 228.765625 30.546875 229.367188 30.734375 229.839844 30.945312 C 230.226562 31.113281 230.792969 31.050781 231.035156 31.3125 C 231.351562 31.664062 231.644531 32.28125 231.550781 32.691406 C 231.457031 33.089844 230.902344 33.558594 230.476562 33.65625 C 230.011719 33.761719 229.421875 33.554688 228.945312 33.347656 C 228.117188 32.988281 227.503906 33.277344 226.894531 33.796875 C 226.058594 34.515625 225.957031 35.433594 226.917969 35.878906 C 228.871094 36.785156 229.019531 38.386719 228.875 40.035156 C 229.792969 41.078125 230.925781 41.003906 231.972656 41.09375 C 234.859375 41.347656 237.410156 42.234375 239.339844 44.550781 C 239.722656 45.011719 240.339844 45.40625 240.917969 45.546875 C 244.144531 46.328125 247.292969 47.414062 250.667969 47.570312 C 252.78125 47.667969 254.878906 48.140625 257.367188 48.5 C 257.824219 48.21875 258.632812 47.71875 259.402344 47.246094 C 259.804688 47.355469 260.125 47.414062 260.417969 47.53125 C 262.6875 48.445312 262.855469 48.472656 264.007812 46.511719 C 264.671875 45.378906 265.558594 44.789062 266.753906 44.496094 C 267.980469 44.199219 268.566406 44.425781 269.164062 45.492188 C 269.53125 46.148438 269.792969 46.859375 270.191406 47.492188 C 270.777344 48.421875 271.933594 48.574219 272.664062 47.789062 C 273.234375 47.175781 273.683594 46.445312 274.296875 45.613281 C 275.011719 45.839844 275.703125 46.039062 276.382812 46.273438 C 277 46.488281 277.601562 46.746094 278.253906 45.910156 C 278.03125 45.441406 277.71875 44.90625 277.507812 44.332031 C 277.171875 43.398438 277.449219 42.578125 278.308594 42.15625 C 278.972656 41.828125 279.699219 41.597656 280.425781 41.433594 C 281.082031 41.28125 281.703125 41.453125 282.113281 42.074219 C 282.503906 42.660156 282.601562 43.328125 282.230469 43.894531 C 281.773438 44.597656 281.171875 45.214844 280.597656 45.839844 C 280.316406 46.144531 279.960938 46.386719 279.734375 46.578125 C 279.449219 47.601562 279.890625 48.1875 280.5625 48.605469 C 281.1875 48.992188 281.867188 49.296875 282.601562 49.675781 C 282.347656 51.621094 281.34375 53.117188 280.402344 54.625 C 280.292969 54.804688 279.832031 54.765625 279.46875 54.847656 C 278.414062 53.816406 278.476562 51.914062 276.671875 51.3125 C 275.226562 52.410156 274.515625 53.894531 274.539062 55.679688 C 274.570312 58.246094 274.621094 58.246094 273.28125 59.9375 C 273.65625 60.894531 274.378906 61.429688 275.375 61.695312 C 275.765625 57.582031 275.96875 57.257812 278.785156 56.421875 C 279.9375 57.707031 280.011719 59.546875 281.03125 61.199219 C 282.171875 60.921875 283.390625 60.617188 284.613281 60.332031 C 285.40625 60.144531 286.109375 60.257812 286.578125 61.019531 C 287.023438 61.738281 287.007812 62.507812 286.511719 63.132812 C 285.984375 63.785156 285.378906 64.464844 284.65625 64.855469 C 283.25 65.621094 282.507812 66.601562 282.910156 68.234375 C 283.136719 69.132812 282.960938 69.902344 282.371094 70.640625 C 282.15625 70.90625 282.167969 71.355469 282.085938 71.6875 C 282.859375 72.03125 283.058594 71.554688 283.253906 71.214844 C 283.703125 70.433594 284.296875 69.828125 285.164062 69.585938 C 287.070312 69.046875 288.09375 67.523438 289.375 66.019531 C 289 65.375 288.582031 64.773438 288.292969 64.117188 C 288.144531 63.761719 288.042969 63.136719 288.238281 62.9375 C 288.5625 62.597656 289.179688 62.277344 289.601562 62.351562 C 290.308594 62.476562 291.003906 62.839844 291.609375 63.25 C 292.253906 63.6875 292.410156 64.777344 291.78125 65.230469 C 290.566406 66.105469 290.507812 67.308594 290.226562 68.578125 C 290.007812 69.566406 289.308594 70.488281 288.679688 71.332031 C 287.964844 72.285156 287.710938 73.210938 288.234375 74.292969 C 288.433594 74.394531 288.617188 74.574219 288.800781 74.570312 C 289.777344 74.554688 290.777344 74.449219 291.304688 75.554688 C 291.90625 76.820312 292.582031 78.078125 291.953125 79.539062 C 291.574219 80.40625 291.152344 81.257812 290.671875 82.289062 C 291.199219 82.503906 291.554688 82.757812 291.914062 82.769531 C 292.808594 82.785156 293.578125 83.03125 294.324219 83.527344 C 295.859375 84.539062 297.324219 84.457031 298.71875 83.160156 C 299.246094 82.664062 299.925781 82.335938 300.671875 81.839844 C 301.957031 83.515625 301.902344 85.53125 302.804688 86.96875 C 302.390625 88.042969 301.613281 88.253906 300.878906 88.226562 C 299.601562 88.179688 298.3125 88.039062 297.050781 87.792969 C 293.828125 87.179688 293.832031 87.148438 290.828125 88.773438 C 289.476562 88.457031 288.210938 87.066406 286.453125 87.941406 C 285.320312 88.503906 284.484375 89.1875 284.039062 90.625 C 284.554688 90.902344 285.054688 91.261719 285.609375 91.445312 C 286.488281 91.742188 287.210938 92.207031 287.429688 93.105469 C 287.730469 94.320312 288.632812 94.78125 289.632812 95.25 C 290.203125 95.515625 290.8125 95.867188 291.179688 96.351562 C 291.4375 96.691406 291.519531 97.433594 291.316406 97.785156 C 291.109375 98.136719 290.445312 98.394531 289.992188 98.386719 C 289.5 98.375 288.953125 98.085938 288.542969 97.773438 C 287.960938 97.324219 287.476562 96.742188 286.972656 96.234375 C 286.042969 96.3125 285.996094 96.972656 285.976562 97.621094 C 285.957031 98.429688 286.261719 99.113281 287.007812 99.484375 C 287.675781 99.816406 288.417969 100.011719 289.074219 100.367188 C 289.671875 100.691406 290.089844 101.300781 289.808594 101.96875 C 289.636719 102.382812 289.101562 102.867188 288.679688 102.921875 C 287.738281 103.035156 286.761719 102.9375 285.808594 102.855469 C 284.738281 102.765625 283.675781 102.5625 282.609375 102.484375 C 282.242188 102.457031 281.859375 102.652344 281.425781 102.757812 C 281.890625 103.929688 282.835938 103.929688 283.617188 104.121094 C 284.933594 104.4375 285.976562 105.121094 286.785156 106.1875 C 287.5625 107.21875 287.199219 108.425781 285.914062 108.644531 C 284.65625 108.863281 283.355469 108.851562 282.074219 108.867188 C 281.328125 108.875 280.578125 108.6875 279.832031 108.691406 C 279.46875 108.691406 279.105469 108.921875 278.75 109.046875 C 279.035156 110.054688 279.78125 109.9375 280.347656 110.164062 C 281.328125 110.558594 282.347656 110.921875 283.234375 111.484375 C 284.054688 112.003906 284.207031 112.855469 283.554688 113.710938 C 282.902344 114.570312 282.882812 115.402344 282.902344 116.402344 C 282.945312 118.957031 281.1875 120.265625 278.652344 119.742188 C 277.5 119.507812 276.347656 119.195312 275.183594 119.109375 C 274.503906 119.054688 273.792969 119.378906 272.832031 119.59375 C 273.226562 120.371094 273.421875 120.964844 273.789062 121.414062 C 274.035156 121.71875 274.507812 121.910156 274.914062 122.003906 C 277.839844 122.679688 280.792969 123.152344 283.96875 123.054688 C 284.222656 122.449219 284.441406 121.875 284.703125 121.316406 C 285.148438 120.367188 286.042969 120.222656 286.726562 121.03125 C 287.132812 121.519531 287.414062 122.109375 287.75 122.65625 C 287.453125 123.226562 287.15625 123.796875 286.859375 124.367188" fill-rule="evenodd"/><path fill="#FFBD59" d="M 194.25 153.90625 C 193.550781 153.726562 192.847656 153.542969 192.101562 153.351562 C 191.8125 151.304688 191.539062 149.410156 192.996094 147.726562 C 192.28125 147.355469 191.671875 147.152344 191.203125 146.773438 C 190.253906 146 190.28125 144.625 191.316406 144.070312 C 192.46875 143.449219 193.488281 142.738281 194.390625 141.789062 C 194.730469 141.429688 195.304688 141.230469 195.808594 141.089844 C 196.453125 140.910156 197.089844 141.007812 197.527344 141.617188 C 197.9375 142.191406 198.015625 142.808594 197.667969 143.425781 C 197.511719 143.699219 197.296875 143.957031 197.058594 144.160156 C 196.210938 144.886719 196.171875 145.84375 196.308594 146.816406 C 196.414062 147.558594 196.792969 148.285156 196.773438 149.011719 C 196.71875 150.933594 197.128906 152.507812 198.828125 153.730469 C 199.722656 154.371094 199.445312 155.800781 198.574219 156.570312 C 197.804688 157.25 196.621094 157.328125 195.953125 156.566406 C 195.335938 155.855469 194.917969 154.972656 194.25 153.90625" fill-rule="evenodd"/><path fill="#FFBD59" d="M 65.042969 42.277344 C 66.171875 42.40625 67.023438 42.46875 67.859375 42.605469 C 68.699219 42.742188 69.125 43.351562 69.3125 44.125 C 69.511719 44.96875 69.121094 45.59375 68.429688 46.007812 C 67.886719 46.332031 67.304688 46.628906 66.703125 46.796875 C 65.644531 47.097656 64.695312 46.800781 64.234375 45.847656 C 63.574219 44.472656 62.625 43.375 61.605469 42.277344 C 60.886719 41.503906 60.933594 40.445312 61.507812 39.972656 C 62.242188 39.371094 63.285156 39.589844 63.972656 40.539062 C 64.339844 41.050781 64.636719 41.613281 65.042969 42.277344" fill-rule="evenodd"/><path fill="#FFBD59" d="M 155.015625 36.691406 C 154.855469 36.570312 154.589844 36.390625 154.351562 36.1875 C 152.835938 34.902344 153.011719 33.667969 154.808594 32.792969 C 156.429688 32 158.054688 31.730469 159.621094 32.816406 C 160.105469 33.152344 160.484375 33.730469 160.730469 34.277344 C 160.871094 34.59375 160.773438 35.152344 160.566406 35.464844 C 159.601562 36.941406 156.683594 37.59375 155.015625 36.691406" fill-rule="evenodd"/><path fill="#FFBD59" d="M 102.003906 156.523438 C 101.5 157.316406 100.753906 157.65625 99.832031 157.660156 C 98.914062 157.667969 98.191406 157.179688 97.847656 156.3125 C 97.726562 156.015625 97.582031 155.699219 97.589844 155.394531 C 97.617188 154.1875 97.394531 153.070312 96.792969 152.011719 C 96.648438 151.757812 96.59375 151.339844 96.707031 151.085938 C 96.863281 150.734375 97.160156 150.386719 97.492188 150.195312 C 97.710938 150.070312 98.265625 150.117188 98.367188 150.277344 C 99.089844 151.40625 100.023438 152.15625 101.375 152.359375 C 101.542969 152.382812 101.703125 152.628906 101.816406 152.804688 C 102.402344 153.695312 102.492188 155.597656 102.003906 156.523438" fill-rule="evenodd"/><path fill="#FFBD59" d="M 9.902344 106.648438 C 9.84375 106.929688 9.6875 107.621094 9.558594 108.320312 C 9.519531 108.523438 9.582031 108.746094 9.550781 108.953125 C 9.40625 109.886719 8.773438 110.476562 7.859375 110.554688 C 6.300781 110.691406 4.8125 109.695312 4.453125 108.269531 C 4.234375 107.414062 4.582031 106.546875 5.539062 106.242188 C 6.695312 105.875 7.625 105.363281 8.351562 104.34375 C 8.902344 103.582031 9.824219 103.539062 10.300781 103.996094 C 10.8125 104.480469 10.851562 105.183594 10.410156 106.039062 C 10.363281 106.128906 10.277344 106.199219 9.902344 106.648438" fill-rule="evenodd"/><path fill="#FFBD59" d="M 28.511719 59.234375 C 27.757812 58.902344 27.144531 58.710938 26.617188 58.382812 C 26.0625 58.035156 25.960938 57.207031 26.296875 56.671875 C 26.632812 56.132812 27.511719 55.835938 27.960938 56.269531 C 28.921875 57.195312 29.984375 57.777344 31.328125 57.8125 C 31.429688 57.8125 31.53125 57.882812 31.621094 57.933594 C 32.390625 58.378906 32.667969 59.558594 32.3125 60.835938 C 31.949219 62.144531 31.195312 62.902344 30.148438 62.777344 C 29.703125 62.726562 29.21875 62.332031 28.917969 61.953125 C 28.683594 61.65625 28.683594 61.15625 28.621094 60.742188 C 28.558594 60.328125 28.558594 59.902344 28.511719 59.234375" fill-rule="evenodd"/><path fill="#FFBD59" d="M 151.242188 35.511719 C 151.515625 35.808594 151.839844 36.089844 152.078125 36.429688 C 152.664062 37.273438 152.148438 38.53125 151.113281 38.636719 C 150.507812 38.695312 149.808594 38.628906 149.269531 38.371094 C 148.070312 37.792969 146.914062 37.515625 145.566406 37.859375 C 144.742188 38.066406 144.125 37.457031 143.996094 36.648438 C 143.851562 35.722656 144.394531 34.691406 145.222656 34.714844 C 147.222656 34.773438 149.25 34.824219 151.242188 35.511719" fill-rule="evenodd"/><path fill="#FFBD59" d="M 110.535156 16.519531 C 109.789062 17.875 107.011719 18.65625 105.71875 17.878906 C 104.488281 17.136719 104.445312 15.515625 105.640625 14.753906 C 106.75 14.046875 107.925781 13.617188 109.261719 13.992188 C 110.3125 14.289062 110.996094 15.675781 110.535156 16.519531" fill-rule="evenodd"/><path fill="#FFBD59" d="M 75.316406 22.554688 C 75.1875 22.503906 75.800781 22.683594 76.359375 22.976562 C 76.71875 23.164062 77.125 23.457031 77.261719 23.804688 C 77.441406 24.25 77.492188 24.828125 77.378906 25.292969 C 77.246094 25.824219 76.308594 26.152344 75.765625 25.980469 C 75.566406 25.917969 75.335938 25.871094 75.1875 25.738281 C 74.3125 24.941406 73.3125 24.441406 72.164062 24.109375 C 71.664062 23.964844 71.230469 23.3125 70.945312 22.792969 C 70.785156 22.496094 70.835938 21.855469 71.0625 21.632812 C 71.386719 21.316406 72.015625 20.992188 72.398438 21.097656 C 73.1875 21.316406 73.894531 21.816406 75.316406 22.554688" fill-rule="evenodd"/><path fill="#FFBD59" d="M 83.992188 161.003906 C 83.40625 161.769531 82.964844 162.523438 82.355469 163.101562 C 81.335938 164.074219 79.71875 163.683594 79.199219 162.367188 C 79.0625 162.023438 79.054688 161.414062 79.265625 161.1875 C 80.136719 160.265625 81.105469 159.4375 82.058594 158.59375 C 82.207031 158.464844 82.457031 158.347656 82.640625 158.375 C 83.140625 158.441406 83.714844 158.46875 84.089844 158.746094 C 84.339844 158.933594 84.394531 159.519531 84.367188 159.910156 C 84.335938 160.316406 84.101562 160.703125 83.992188 161.003906" fill-rule="evenodd"/><path fill="#FFBD59" d="M 32.730469 136.722656 C 32.367188 137.578125 31.996094 138.429688 31.640625 139.285156 C 31.558594 139.480469 31.519531 139.699219 31.425781 139.886719 C 31.027344 140.671875 29.914062 141.050781 29.238281 140.636719 C 28.671875 140.28125 28.3125 139.265625 28.570312 138.640625 C 28.691406 138.347656 28.84375 138.023438 29.074219 137.835938 C 29.878906 137.167969 30.152344 136.292969 30.300781 135.304688 C 30.425781 134.457031 31.023438 133.976562 31.859375 133.980469 C 32.230469 133.980469 32.707031 134.199219 32.957031 134.476562 C 33.503906 135.082031 33.554688 135.820312 33.125 136.554688 C 33.074219 136.644531 33.007812 136.726562 32.945312 136.8125 C 32.871094 136.785156 32.800781 136.753906 32.730469 136.722656" fill-rule="evenodd"/><path fill="#FFBD59" d="M 165.980469 154.625 C 165.710938 154.828125 165.121094 155.453125 164.394531 155.800781 C 163.355469 156.308594 162.21875 155.566406 162.042969 154.40625 C 161.78125 152.695312 163.085938 150.988281 164.84375 150.785156 C 165.550781 150.703125 166.089844 151.019531 166.367188 151.683594 C 166.710938 152.503906 166.648438 153.25 165.980469 154.625" fill-rule="evenodd"/><path fill="#FFBD59" d="M 126.625 140.621094 C 126.21875 141.128906 125.972656 141.484375 125.675781 141.785156 C 125.011719 142.457031 123.984375 142.628906 123.335938 142.210938 C 122.664062 141.78125 122.25 140.773438 122.488281 139.953125 C 122.828125 138.777344 123.488281 137.835938 124.621094 137.273438 C 125.695312 136.742188 126.875 137.386719 126.910156 138.621094 C 126.929688 139.34375 126.710938 140.070312 126.625 140.621094" fill-rule="evenodd"/><path fill="#FFBD59" d="M 78.246094 159.410156 C 77.804688 160.371094 77.609375 160.988281 77.261719 161.5 C 76.804688 162.175781 75.574219 162.414062 74.972656 162.042969 C 74.210938 161.578125 74.027344 160.269531 74.636719 159.507812 C 75.359375 158.613281 76.085938 157.71875 76.855469 156.871094 C 77.316406 156.367188 77.929688 156.207031 78.570312 156.566406 C 79.199219 156.914062 79.382812 157.800781 78.945312 158.511719 C 78.671875 158.953125 78.304688 159.339844 78.246094 159.410156" fill-rule="evenodd"/><path fill="#FFBD59" d="M 38.648438 154.273438 C 37.945312 155.652344 36.726562 156.324219 35.757812 155.957031 C 34.707031 155.5625 34.324219 153.960938 34.980469 152.609375 C 35.121094 152.328125 35.296875 152.050781 35.492188 151.800781 C 36.191406 150.929688 37.289062 150.570312 38.015625 150.960938 C 38.75 151.355469 39.144531 152.464844 38.90625 153.5 C 38.832031 153.8125 38.707031 154.105469 38.648438 154.273438" fill-rule="evenodd"/><path fill="#FFBD59" d="M 36.902344 64.277344 C 35.523438 63.519531 34.980469 62.441406 35.367188 61.546875 C 35.742188 60.667969 36.992188 60.414062 38.1875 61.03125 C 38.65625 61.273438 39.113281 61.59375 39.472656 61.972656 C 39.945312 62.46875 40.058594 63.109375 39.785156 63.765625 C 39.515625 64.421875 38.6875 64.789062 37.886719 64.597656 C 37.472656 64.5 37.074219 64.335938 36.902344 64.277344" fill-rule="evenodd"/><path fill="#FFBD59" d="M 11.054688 86.382812 C 9.742188 85.730469 9.144531 84.554688 9.644531 83.601562 C 10.136719 82.660156 11.457031 82.519531 12.738281 83.273438 C 13.832031 83.925781 14.324219 85.058594 13.875 85.914062 C 13.429688 86.761719 12.230469 86.964844 11.054688 86.382812" fill-rule="evenodd"/><path fill="#FFBD59" d="M 127.632812 159.234375 C 127.371094 159.734375 127.324219 159.832031 127.269531 159.925781 C 126.679688 160.902344 125.601562 161.378906 124.855469 160.992188 C 124.09375 160.605469 123.875 159.375 124.535156 158.433594 C 125.011719 157.75 125.628906 157.128906 126.289062 156.613281 C 126.929688 156.113281 127.9375 156.667969 127.902344 157.484375 C 127.867188 158.214844 127.679688 158.941406 127.632812 159.234375" fill-rule="evenodd"/><path fill="#FFBD59" d="M 115.296875 164.722656 C 114.46875 166.355469 113.167969 166.957031 112.363281 166.285156 C 111.617188 165.660156 111.640625 164.554688 112.515625 163.40625 C 112.898438 162.90625 113.367188 162.429688 113.898438 162.101562 C 114.191406 161.914062 114.78125 161.902344 115.070312 162.082031 C 115.371094 162.265625 115.628906 162.78125 115.617188 163.144531 C 115.605469 163.769531 115.371094 164.386719 115.296875 164.722656" fill-rule="evenodd"/><path fill="#FFBD59" d="M 131.804688 22.710938 C 131.300781 22.957031 130.859375 23.316406 130.378906 23.371094 C 129.058594 23.519531 127.855469 22.585938 127.566406 21.257812 C 127.441406 20.683594 127.652344 20.179688 128.21875 19.9375 C 129.546875 19.367188 131.207031 20.019531 131.6875 21.332031 C 131.824219 21.707031 131.765625 22.148438 131.804688 22.710938" fill-rule="evenodd"/><path fill="#FFBD59" d="M 141.800781 25.910156 C 141.972656 26.035156 142.160156 26.144531 142.320312 26.28125 C 142.90625 26.769531 143.136719 27.671875 142.859375 28.3125 C 142.585938 28.9375 141.710938 29.335938 140.953125 29.167969 C 140.746094 29.125 140.53125 29.066406 140.339844 28.976562 C 139.078125 28.382812 138.316406 27.128906 138.648438 26.210938 C 138.964844 25.328125 140.429688 25.1875 141.800781 25.910156" fill-rule="evenodd"/><path fill="#FFBD59" d="M 134.882812 158.386719 C 134.460938 158.902344 134.113281 159.472656 133.628906 159.859375 C 133.351562 160.078125 132.777344 160.15625 132.457031 160.019531 C 132.136719 159.882812 131.796875 159.410156 131.765625 159.058594 C 131.640625 157.691406 132.832031 156.105469 134.210938 155.652344 C 134.703125 155.484375 135.363281 155.988281 135.285156 156.523438 C 135.199219 157.148438 135.023438 157.761719 134.882812 158.386719" fill-rule="evenodd"/><path fill="#FFBD59" d="M 133.65625 32.207031 C 132.835938 31.929688 132.457031 30.777344 132.863281 29.785156 C 133.152344 29.078125 133.996094 28.679688 134.675781 28.929688 C 135.410156 29.199219 135.855469 30.199219 135.617188 31.035156 C 135.378906 31.875 134.398438 32.457031 133.65625 32.207031" fill-rule="evenodd"/><path fill="#FFBD59" d="M 39.414062 139.828125 C 40.042969 140.140625 40.371094 141.117188 40.054688 141.742188 C 39.566406 142.707031 38.203125 143.132812 37.351562 142.582031 C 36.765625 142.203125 36.578125 141.273438 36.957031 140.613281 C 37.449219 139.753906 38.554688 139.402344 39.414062 139.828125" fill-rule="evenodd"/><path fill="#FFBD59" d="M 36.199219 144.453125 C 35.847656 145.265625 34.871094 145.746094 34.082031 145.488281 C 33.339844 145.25 32.886719 144.101562 33.230469 143.324219 C 33.558594 142.578125 34.609375 142.222656 35.441406 142.570312 C 36.144531 142.867188 36.5 143.75 36.199219 144.453125" fill-rule="evenodd"/><g clip-path="url(#e)"><path fill="#FFBD59" d="M 80.78125 1.566406 C 81.5625 2.003906 81.929688 3.023438 81.570312 3.746094 C 81.257812 4.363281 80.261719 4.636719 79.613281 4.277344 C 78.855469 3.859375 78.492188 2.835938 78.839844 2.089844 C 79.136719 1.453125 80.101562 1.191406 80.78125 1.566406" fill-rule="evenodd"/></g><path fill="#FFBD59" d="M 6.070312 129.289062 C 5.742188 129.910156 4.734375 130.242188 4.113281 129.9375 C 3.378906 129.574219 3.011719 128.449219 3.386719 127.710938 C 3.699219 127.097656 4.703125 126.773438 5.351562 127.074219 C 6.09375 127.421875 6.464844 128.558594 6.070312 129.289062" fill-rule="evenodd"/><path fill="#FFBD59" d="M 57.933594 39.375 C 57.523438 39.960938 56.527344 40.183594 55.917969 39.824219 C 55.183594 39.394531 54.917969 38.277344 55.375 37.585938 C 55.789062 36.964844 56.753906 36.746094 57.363281 37.132812 C 58.097656 37.605469 58.382812 38.730469 57.933594 39.375" fill-rule="evenodd"/><g clip-path="url(#f)"><path fill="#FFBD59" d="M 64.167969 164.691406 C 64.847656 165.117188 65.113281 166.324219 64.667969 166.980469 C 64.273438 167.570312 63.222656 167.828125 62.652344 167.476562 C 61.964844 167.054688 61.714844 165.878906 62.160156 165.1875 C 62.542969 164.59375 63.59375 164.332031 64.167969 164.691406" fill-rule="evenodd"/></g><g clip-path="url(#g)"><path fill="#FFBD59" d="M 192.335938 166.566406 C 191.992188 167.355469 190.945312 167.753906 190.183594 167.378906 C 189.535156 167.058594 189.203125 166.097656 189.515625 165.460938 C 189.890625 164.691406 190.941406 164.289062 191.6875 164.628906 C 192.3125 164.914062 192.632812 165.878906 192.335938 166.566406" fill-rule="evenodd"/></g><path fill="#FFBD59" d="M 159.648438 152.070312 C 159.230469 152.839844 158.175781 153.148438 157.425781 152.71875 C 156.761719 152.339844 156.511719 151.390625 156.902344 150.757812 C 157.382812 149.980469 158.4375 149.660156 159.128906 150.078125 C 159.738281 150.445312 159.996094 151.433594 159.648438 152.070312" fill-rule="evenodd"/><path fill="#FFBD59" d="M 92.328125 157.886719 C 91.609375 157.425781 91.332031 156.320312 91.773438 155.699219 C 92.246094 155.039062 93.328125 154.914062 94.007812 155.441406 C 94.605469 155.902344 94.832031 156.785156 94.507812 157.386719 C 94.125 158.097656 93.046875 158.34375 92.328125 157.886719" fill-rule="evenodd"/><g clip-path="url(#h)"><path fill="#FFBD59" d="M 2.324219 114.8125 C 1.628906 114.339844 1.402344 113.210938 1.863281 112.519531 C 2.257812 111.925781 3.285156 111.691406 3.867188 112.066406 C 4.5625 112.507812 4.789062 113.660156 4.320312 114.347656 C 3.90625 114.960938 2.894531 115.195312 2.324219 114.8125" fill-rule="evenodd"/></g><path fill="#FFBD59" d="M 48.65625 157.828125 C 47.972656 157.371094 47.753906 156.214844 48.21875 155.539062 C 48.628906 154.9375 49.652344 154.71875 50.226562 155.101562 C 50.929688 155.574219 51.148438 156.71875 50.667969 157.382812 C 50.246094 157.972656 49.214844 158.199219 48.65625 157.828125" fill-rule="evenodd"/><path fill="#FFBD59" d="M 28.4375 145.488281 C 28.148438 146.160156 27.246094 146.554688 26.546875 146.3125 C 25.777344 146.046875 25.363281 144.984375 25.710938 144.164062 C 26.003906 143.484375 26.914062 143.078125 27.585938 143.332031 C 28.355469 143.621094 28.777344 144.695312 28.4375 145.488281" fill-rule="evenodd"/><path fill="#FFBD59" d="M 92.074219 7.433594 C 92.847656 7.929688 93.125 8.988281 92.664062 9.671875 C 92.257812 10.273438 91.277344 10.429688 90.660156 9.988281 C 89.898438 9.445312 89.605469 8.378906 90.046875 7.742188 C 90.449219 7.160156 91.414062 7.011719 92.074219 7.433594" fill-rule="evenodd"/><path fill="#FFBD59" d="M 90.140625 15.683594 C 90.765625 16.160156 90.917969 17.304688 90.449219 18.03125 C 90.050781 18.652344 89.003906 18.929688 88.464844 18.554688 C 87.800781 18.101562 87.664062 16.996094 88.175781 16.242188 C 88.636719 15.570312 89.621094 15.292969 90.140625 15.683594" fill-rule="evenodd"/><path fill="#FFBD59" d="M 11.101562 115.84375 C 11.867188 116.140625 12.257812 117.214844 11.886719 118.007812 C 11.566406 118.6875 10.652344 119.0625 9.992188 118.789062 C 9.230469 118.46875 8.84375 117.414062 9.195312 116.609375 C 9.480469 115.960938 10.414062 115.582031 11.101562 115.84375" fill-rule="evenodd"/><path fill="#FFBD59" d="M 29.9375 152.820312 C 29.242188 152.363281 29.011719 151.230469 29.476562 150.546875 C 29.890625 149.945312 30.886719 149.734375 31.476562 150.128906 C 32.195312 150.609375 32.425781 151.722656 31.941406 152.386719 C 31.496094 152.992188 30.523438 153.203125 29.9375 152.820312" fill-rule="evenodd"/><path fill="#FFBD59" d="M 152.683594 153.078125 C 152.277344 153.816406 151.132812 154.140625 150.5 153.695312 C 149.933594 153.296875 149.699219 152.304688 150.03125 151.710938 C 150.4375 150.988281 151.578125 150.667969 152.222656 151.097656 C 152.796875 151.472656 153.023438 152.453125 152.683594 153.078125" fill-rule="evenodd"/><path fill="#FFBD59" d="M 17.101562 131.949219 C 16.417969 131.496094 16.1875 130.339844 16.644531 129.664062 C 17.046875 129.066406 18.082031 128.835938 18.644531 129.214844 C 19.34375 129.683594 19.574219 130.828125 19.109375 131.496094 C 18.695312 132.082031 17.65625 132.324219 17.101562 131.949219" fill-rule="evenodd"/><path fill="#FFBD59" d="M 177.722656 155.042969 C 178.335938 155.304688 178.644531 156.238281 178.351562 156.921875 C 178.015625 157.6875 177.003906 158.058594 176.246094 157.695312 C 175.59375 157.378906 175.269531 156.453125 175.59375 155.835938 C 175.984375 155.085938 176.964844 154.71875 177.722656 155.042969" fill-rule="evenodd"/><path fill="#FFBD59" d="M 44.574219 54.015625 C 43.671875 53.542969 43.421875 52.613281 43.820312 52.015625 C 44.15625 51.511719 44.96875 51.339844 45.472656 51.667969 C 45.953125 51.976562 46.289062 52.914062 45.90625 53.304688 C 45.535156 53.683594 44.929688 53.835938 44.574219 54.015625" fill-rule="evenodd"/><path fill="#FFBD59" d="M 34.339844 39.09375 C 34.179688 38.277344 33.921875 37.703125 34 37.175781 C 34.085938 36.582031 34.957031 36.273438 35.507812 36.484375 C 36.167969 36.734375 36.566406 37.722656 36.082031 38.277344 C 35.746094 38.660156 35.089844 38.761719 34.339844 39.09375" fill-rule="evenodd"/><path fill="#FFBD59" d="M 16.867188 94.34375 C 16.019531 94.566406 15.457031 94.859375 14.925781 94.8125 C 14.339844 94.757812 14.042969 93.859375 14.277344 93.269531 C 14.507812 92.6875 15.363281 92.265625 15.835938 92.648438 C 16.242188 92.980469 16.425781 93.585938 16.867188 94.34375" fill-rule="evenodd"/><path fill="#FFBD59" d="M 9.242188 90.710938 C 8.386719 90.785156 7.789062 90.992188 7.289062 90.84375 C 6.71875 90.679688 6.582031 89.753906 6.910156 89.226562 C 7.242188 88.683594 8.148438 88.410156 8.515625 88.859375 C 8.855469 89.273438 8.941406 89.894531 9.242188 90.710938" fill-rule="evenodd"/><path fill="#FFBD59" d="M 18.371094 76.976562 C 18.046875 77.003906 17.527344 77.191406 17.117188 77.058594 C 16.414062 76.824219 16.191406 75.8125 16.664062 75.25 C 17.011719 74.828125 17.492188 74.632812 18.035156 74.90625 C 18.675781 75.230469 18.898438 76.183594 18.371094 76.976562" fill-rule="evenodd"/><path fill="#FFBD59" d="M 20.644531 88.300781 C 20.0625 88.035156 19.832031 87.222656 20.1875 86.664062 C 20.515625 86.152344 21.015625 86 21.578125 86.132812 C 22.191406 86.28125 22.53125 87.097656 22.257812 87.683594 C 21.980469 88.285156 21.238281 88.566406 20.644531 88.300781" fill-rule="evenodd"/><path fill="#FFBD59" d="M 128.367188 145.542969 C 127.660156 145.675781 127.171875 145.910156 126.757812 145.8125 C 126.203125 145.683594 125.972656 144.800781 126.214844 144.230469 C 126.457031 143.65625 127.402344 143.3125 127.761719 143.761719 C 128.082031 144.167969 128.128906 144.792969 128.367188 145.542969" fill-rule="evenodd"/><path fill="#FFBD59" d="M 108.671875 151.292969 C 108.363281 152.140625 107.570312 152.445312 107.007812 152.167969 C 106.449219 151.890625 106.160156 151.164062 106.378906 150.574219 C 106.585938 150.007812 107.476562 149.601562 107.925781 150.003906 C 108.320312 150.359375 108.492188 150.964844 108.671875 151.292969" fill-rule="evenodd"/><path fill="#FFBD59" d="M 47.382812 43.730469 C 46.96875 44.582031 46.210938 44.8125 45.664062 44.484375 C 45.125 44.152344 44.945312 43.375 45.328125 42.847656 C 45.664062 42.390625 46.226562 42.105469 46.664062 42.460938 C 47.058594 42.78125 47.207031 43.398438 47.382812 43.730469" fill-rule="evenodd"/><path fill="#FFBD59" d="M 18.117188 81.25 C 18.148438 82.246094 18.332031 82.871094 18.125 83.316406 C 17.972656 83.652344 17.320312 83.898438 16.882812 83.917969 C 16.417969 83.941406 16.25 82.984375 16.683594 82.359375 C 16.933594 82 17.394531 81.796875 18.117188 81.25" fill-rule="evenodd"/><path fill="#FFBD59" d="M 67.929688 23.453125 C 67.957031 24.246094 68.109375 24.769531 67.949219 25.164062 C 67.847656 25.402344 67.15625 25.660156 66.929688 25.539062 C 66.417969 25.269531 66.347656 24.648438 66.667969 24.179688 C 66.859375 23.902344 67.304688 23.796875 67.929688 23.453125" fill-rule="evenodd"/><path fill="#FFBD59" d="M 22.289062 58.3125 C 22.472656 58.859375 22.707031 59.203125 22.617188 59.359375 C 22.445312 59.648438 22.085938 59.828125 21.808594 60.050781 C 21.691406 59.8125 21.425781 59.523438 21.484375 59.34375 C 21.59375 59.03125 21.902344 58.785156 22.289062 58.3125" fill-rule="evenodd"/><path fill="#FFBD59" d="M 242 152.601562 C 241.441406 152.835938 241.183594 153.039062 240.933594 153.03125 C 240.484375 153.011719 240.148438 152.425781 240.375 152.117188 C 240.480469 151.96875 240.777344 151.796875 240.890625 151.84375 C 241.214844 151.988281 241.492188 152.238281 242 152.601562" fill-rule="evenodd"/><path fill="#FFBD59" d="M 296.832031 60.113281 C 296.164062 60.234375 295.699219 60.457031 295.519531 60.316406 C 295.292969 60.140625 295.21875 59.660156 295.246094 59.324219 C 295.261719 59.195312 295.828125 58.945312 295.980469 59.03125 C 296.261719 59.191406 296.421875 59.558594 296.832031 60.113281" fill-rule="evenodd"/><path fill="#FFBD59" d="M 296.808594 99.089844 C 296.761719 98.652344 296.613281 98.300781 296.730469 98.113281 C 296.851562 97.921875 297.230469 97.894531 297.496094 97.796875 C 297.5625 98.078125 297.75 98.40625 297.664062 98.621094 C 297.582031 98.820312 297.199219 98.890625 296.808594 99.089844" fill-rule="evenodd"/><path fill="#FFBD59" d="M 293.121094 58.226562 C 292.761719 58.363281 292.496094 58.558594 292.234375 58.546875 C 291.808594 58.53125 291.597656 57.933594 291.917969 57.605469 C 292.089844 57.429688 292.511719 57.296875 292.707031 57.386719 C 292.902344 57.480469 292.960938 57.875 293.121094 58.226562" fill-rule="evenodd"/><path fill="#FFBD59" d="M 302.710938 78.984375 C 302.585938 79.621094 302.59375 80.015625 302.414062 80.296875 C 302.332031 80.425781 301.890625 80.335938 301.613281 80.339844 C 301.617188 80.042969 301.523438 79.691406 301.65625 79.472656 C 301.769531 79.277344 302.132812 79.234375 302.710938 78.984375" fill-rule="evenodd"/><path fill="#FFBD59" d="M 278.03125 39.679688 C 277.972656 39.222656 277.8125 38.863281 277.929688 38.664062 C 278.039062 38.476562 278.441406 38.457031 278.714844 38.359375 C 278.785156 38.648438 278.972656 38.980469 278.886719 39.210938 C 278.8125 39.40625 278.421875 39.480469 278.03125 39.679688" fill-rule="evenodd"/><path fill="#FFBD59" d="M 221.625 147.410156 C 221.878906 147.191406 222.113281 146.921875 222.167969 146.953125 C 222.40625 147.097656 222.59375 147.324219 222.800781 147.523438 C 222.644531 147.65625 222.449219 147.925781 222.347656 147.894531 C 222.09375 147.8125 221.882812 147.59375 221.625 147.410156" fill-rule="evenodd"/><path fill="#FFBD59" d="M 258.617188 147.101562 C 258.378906 147.3125 258.136719 147.582031 258.09375 147.554688 C 257.859375 147.398438 257.675781 147.167969 257.472656 146.964844 C 257.621094 146.832031 257.824219 146.5625 257.902344 146.59375 C 258.160156 146.695312 258.367188 146.910156 258.617188 147.101562" fill-rule="evenodd"/><path fill="#FFBD59" d="M 261.835938 38.808594 C 261.890625 39.234375 262.035156 39.574219 261.921875 39.757812 C 261.8125 39.945312 261.441406 39.972656 261.183594 40.074219 C 261.117188 39.800781 260.929688 39.480469 261.015625 39.273438 C 261.09375 39.078125 261.460938 39.003906 261.835938 38.808594" fill-rule="evenodd"/><path fill="#FFBD59" d="M 286.375 57.132812 C 285.851562 57.136719 285.574219 57.179688 285.324219 57.113281 C 285.257812 57.09375 285.203125 56.699219 285.28125 56.550781 C 285.359375 56.402344 285.710938 56.230469 285.769531 56.277344 C 285.964844 56.441406 286.085938 56.699219 286.375 57.132812" fill-rule="evenodd"/><path fill="#FFBD59" d="M 254.226562 45.585938 C 253.90625 45.539062 253.710938 45.507812 253.511719 45.480469 C 253.566406 45.199219 253.59375 44.914062 253.699219 44.65625 C 253.714844 44.613281 254.21875 44.671875 254.230469 44.738281 C 254.285156 45.003906 254.234375 45.289062 254.226562 45.585938" fill-rule="evenodd"/><path fill="#FFBD59" d="M 277.625 131.972656 C 277.558594 131.558594 277.515625 131.308594 277.476562 131.058594 C 277.734375 131.039062 278 130.972656 278.234375 131.03125 C 278.332031 131.054688 278.460938 131.441406 278.40625 131.5 C 278.238281 131.675781 277.984375 131.769531 277.625 131.972656" fill-rule="evenodd"/><path fill="#FFBD59" d="M 260.460938 151.285156 C 260.472656 151.015625 260.441406 150.742188 260.519531 150.503906 C 260.542969 150.4375 261.023438 150.414062 261.046875 150.472656 C 261.144531 150.710938 261.144531 150.988281 261.183594 151.253906 C 260.988281 151.261719 260.792969 151.269531 260.460938 151.285156" fill-rule="evenodd"/><path fill="#FFBD59" d="M 254.652344 162.742188 C 254.636719 162.261719 254.605469 161.996094 254.652344 161.742188 C 254.65625 161.699219 255.050781 161.652344 255.203125 161.730469 C 255.347656 161.808594 255.523438 162.164062 255.496094 162.191406 C 255.304688 162.367188 255.0625 162.488281 254.652344 162.742188" fill-rule="evenodd"/><path fill="#FFBD59" d="M 241.414062 24.480469 C 241.144531 24.480469 240.875 24.523438 240.640625 24.453125 C 240.574219 24.433594 240.535156 23.953125 240.59375 23.925781 C 240.824219 23.820312 241.105469 23.8125 241.367188 23.765625 C 241.378906 23.957031 241.394531 24.152344 241.414062 24.480469" fill-rule="evenodd"/><path fill="#FFBD59" d="M 252.757812 30.140625 C 252.476562 30.285156 252.308594 30.375 252.140625 30.46875 C 252.042969 30.230469 251.894531 29.992188 251.871094 29.746094 C 251.863281 29.660156 252.300781 29.441406 252.328125 29.46875 C 252.5 29.664062 252.617188 29.90625 252.757812 30.140625" fill-rule="evenodd"/></g></g></g><g clip-path="url(#i)"><path fill="#27CFCA" d="M 127.15625 223.441406 L 61.09375 223.441406 C 55.890625 223.441406 51.65625 219.207031 51.65625 214.003906 L 51.65625 171.535156 L 42.21875 171.535156 C 39.570312 171.535156 37.5 169.464844 37.5 166.816406 C 37.5 165.566406 38.007812 164.339844 38.898438 163.453125 L 92.472656 110.867188 C 93.390625 109.96875 94.855469 109.96875 95.78125 110.867188 L 113 127.78125 L 113 117.269531 C 113 115.96875 114.058594 114.910156 115.359375 114.910156 L 134.234375 114.910156 C 135.535156 114.910156 136.59375 115.96875 136.59375 117.269531 L 136.59375 150.914062 L 149.339844 163.433594 C 150.242188 164.339844 150.75 165.566406 150.75 166.816406 C 150.75 169.464844 148.679688 171.535156 146.03125 171.535156 L 136.59375 171.535156 L 136.59375 214.003906 C 136.59375 219.207031 132.359375 223.441406 127.15625 223.441406 Z M 94.125 115.859375 L 42.21875 166.800781 L 54.015625 166.816406 C 55.316406 166.816406 56.375 167.875 56.375 169.175781 L 56.375 214.003906 C 56.375 216.605469 58.492188 218.722656 61.09375 218.722656 L 127.15625 218.722656 C 129.757812 218.722656 131.875 216.605469 131.875 214.003906 L 131.875 169.175781 C 131.875 167.875 132.933594 166.816406 134.234375 166.816406 L 146.03125 166.816406 C 146.03125 166.808594 146.023438 166.792969 146.015625 166.789062 L 132.582031 153.589844 C 132.128906 153.144531 131.875 152.539062 131.875 151.90625 L 131.875 119.628906 L 117.71875 119.628906 L 117.71875 133.40625 C 117.71875 134.359375 117.148438 135.214844 116.269531 135.582031 C 115.398438 135.957031 114.386719 135.757812 113.703125 135.09375 Z M 94.125 115.859375"/></g><g fill="#27CFCA"><g><g><path d="M 2.609375 -45.546875 L 13.921875 -45.546875 C 17.523438 -45.546875 20.203125 -44.59375 21.953125 -42.6875 C 23.710938 -40.78125 24.59375 -37.984375 24.59375 -34.296875 L 24.59375 -11.265625 C 24.59375 -7.578125 23.710938 -4.773438 21.953125 -2.859375 C 20.203125 -0.953125 17.523438 0 13.921875 0 L 2.609375 0 Z M 9.765625 -39.046875 L 9.765625 -6.5 L 13.796875 -6.5 C 14.921875 -6.5 15.804688 -6.820312 16.453125 -7.46875 C 17.109375 -8.125 17.4375 -9.28125 17.4375 -10.9375 L 17.4375 -34.625 C 17.4375 -36.269531 17.109375 -37.414062 16.453125 -38.0625 C 15.804688 -38.71875 14.921875 -39.046875 13.796875 -39.046875 Z M 9.765625 -39.046875" transform="translate(42.712 220.213)"/></g></g></g><g fill="#27CFCA"><g><g><path d="M 9.765625 -26.359375 L 19.59375 -26.359375 L 19.59375 -19.84375 L 9.765625 -19.84375 L 9.765625 -6.5 L 22.125 -6.5 L 22.125 0 L 2.609375 0 L 2.609375 -45.546875 L 22.125 -45.546875 L 22.125 -39.046875 L 9.765625 -39.046875 Z M 9.765625 -26.359375" transform="translate(70.305 220.213)"/></g></g></g><g fill="#27CFCA"><g><g><path d="M 23.359375 -16.984375 L 23.359375 -10.9375 C 23.359375 -7.25 22.457031 -4.414062 20.65625 -2.4375 C 18.863281 -0.46875 16.207031 0.515625 12.6875 0.515625 C 9.175781 0.515625 6.519531 -0.46875 4.71875 -2.4375 C 2.914062 -4.414062 2.015625 -7.25 2.015625 -10.9375 L 2.015625 -34.625 C 2.015625 -38.3125 2.914062 -41.140625 4.71875 -43.109375 C 6.519531 -45.085938 9.175781 -46.078125 12.6875 -46.078125 C 16.207031 -46.078125 18.863281 -45.085938 20.65625 -43.109375 C 22.457031 -41.140625 23.359375 -38.3125 23.359375 -34.625 L 23.359375 -30.203125 L 16.59375 -30.203125 L 16.59375 -35.078125 C 16.59375 -36.722656 16.253906 -37.878906 15.578125 -38.546875 C 14.910156 -39.222656 14.015625 -39.5625 12.890625 -39.5625 C 11.753906 -39.5625 10.847656 -39.222656 10.171875 -38.546875 C 9.503906 -37.878906 9.171875 -36.722656 9.171875 -35.078125 L 9.171875 -10.484375 C 9.171875 -8.828125 9.503906 -7.671875 10.171875 -7.015625 C 10.847656 -6.367188 11.753906 -6.046875 12.890625 -6.046875 C 14.015625 -6.046875 14.910156 -6.367188 15.578125 -7.015625 C 16.253906 -7.671875 16.59375 -8.828125 16.59375 -10.484375 L 16.59375 -16.984375 Z M 23.359375 -16.984375" transform="translate(95.295 220.213)"/></g></g></g><g fill="#27CFCA"><g><g><path d="M 9.171875 -10.484375 C 9.171875 -8.828125 9.503906 -7.660156 10.171875 -6.984375 C 10.847656 -6.316406 11.753906 -5.984375 12.890625 -5.984375 C 14.015625 -5.984375 14.910156 -6.316406 15.578125 -6.984375 C 16.253906 -7.660156 16.59375 -8.828125 16.59375 -10.484375 L 16.59375 -35.078125 C 16.59375 -36.722656 16.253906 -37.878906 15.578125 -38.546875 C 14.910156 -39.222656 14.015625 -39.5625 12.890625 -39.5625 C 11.753906 -39.5625 10.847656 -39.222656 10.171875 -38.546875 C 9.503906 -37.878906 9.171875 -36.722656 9.171875 -35.078125 Z M 2.015625 -34.625 C 2.015625 -38.3125 2.945312 -41.140625 4.8125 -43.109375 C 6.675781 -45.085938 9.367188 -46.078125 12.890625 -46.078125 C 16.398438 -46.078125 19.085938 -45.085938 20.953125 -43.109375 C 22.816406 -41.140625 23.75 -38.3125 23.75 -34.625 L 23.75 -10.9375 C 23.75 -7.25 22.816406 -4.414062 20.953125 -2.4375 C 19.085938 -0.46875 16.398438 0.515625 12.890625 0.515625 C 9.367188 0.515625 6.675781 -0.46875 4.8125 -2.4375 C 2.945312 -4.414062 2.015625 -7.25 2.015625 -10.9375 Z M 2.015625 -34.625" transform="translate(121.456 220.213)"/></g></g></g><path transform="matrix(.75 0 0 .75 -4.38 160.071)" fill="none" d="M 67.335281 21.258882 L 82.439448 21.258882 C 87.241532 21.258882 90.80924 22.529715 93.137366 25.071382 C 95.486324 27.613049 96.658199 31.342216 96.658199 36.258883 L 96.658199 66.977635 C 96.658199 71.909927 95.486324 75.644302 93.137366 78.185969 C 90.80924 80.727636 87.241532 81.998469 82.439448 81.998469 L 67.335281 81.998469 Z M 76.866531 29.925549 L 76.866531 73.310969 L 82.24674 73.310969 C 83.762365 73.310969 84.944657 72.883885 85.80924 72.019302 C 86.68424 71.159927 87.12174 69.628677 87.12174 67.425552 L 87.12174 35.837008 C 87.12174 33.628674 86.68424 32.097424 85.80924 31.238049 C 84.944657 30.363049 83.762365 29.925549 82.24674 29.925549 Z M 113.6582 46.852633 L 126.772784 46.852633 L 126.772784 55.540134 L 113.6582 55.540134 L 113.6582 73.310969 L 130.16341 73.310969 L 130.16341 81.998469 L 104.121741 81.998469 L 104.121741 21.258882 L 130.16341 21.258882 L 130.16341 29.925549 L 113.6582 29.925549 Z M 165.111329 59.352634 L 165.111329 67.425552 C 165.111329 72.33701 163.908204 76.11826 161.507162 78.758886 C 159.10612 81.383886 155.569661 82.701594 150.892578 82.701594 C 146.205077 82.701594 142.658202 81.383886 140.25716 78.758886 C 137.856119 76.11826 136.658202 72.33701 136.658202 67.425552 L 136.658202 35.837008 C 136.658202 30.920341 137.856119 27.149507 140.25716 24.519299 C 142.658202 21.878674 146.205077 20.560965 150.892578 20.560965 C 155.569661 20.560965 159.10612 21.878674 161.507162 24.519299 C 163.908204 27.149507 165.111329 30.920341 165.111329 35.837008 L 165.111329 41.722425 L 156.085286 41.722425 L 156.085286 35.222424 C 156.085286 33.029716 155.642578 31.493257 154.751953 30.602632 C 153.861328 29.696382 152.658203 29.243257 151.147786 29.243257 C 149.652994 29.243257 148.449869 29.696382 147.548828 30.602632 C 146.658202 31.493257 146.210286 33.029716 146.210286 35.222424 L 146.210286 68.040135 C 146.210286 70.227635 146.658202 71.758885 147.548828 72.633885 C 148.449869 73.498469 149.652994 73.925552 151.147786 73.925552 C 152.658203 73.925552 153.861328 73.498469 154.751953 72.633885 C 155.642578 71.758885 156.085286 70.227635 156.085286 68.040135 L 156.085286 59.352634 Z M 181.090496 68.040135 C 181.090496 70.227635 181.538413 71.77451 182.429038 72.675552 C 183.33008 73.566177 184.533205 74.014094 186.027997 74.014094 C 187.538413 74.014094 188.741539 73.566177 189.632164 72.675552 C 190.522789 71.77451 190.965497 70.227635 190.965497 68.040135 L 190.965497 35.222424 C 190.965497 33.029716 190.522789 31.493257 189.632164 30.602632 C 188.741539 29.696382 187.538413 29.243257 186.027997 29.243257 C 184.533205 29.243257 183.33008 29.696382 182.429038 30.602632 C 181.538413 31.493257 181.090496 33.029716 181.090496 35.222424 Z M 171.538412 35.837008 C 171.538412 30.920341 172.777996 27.149507 175.267579 24.519299 C 177.751955 21.878674 181.340496 20.560965 186.027997 20.560965 C 190.720705 20.560965 194.304039 21.878674 196.793622 24.519299 C 199.277998 27.149507 200.522789 30.920341 200.522789 35.837008 L 200.522789 67.425552 C 200.522789 72.33701 199.277998 76.11826 196.793622 78.758886 C 194.304039 81.383886 190.720705 82.701594 186.027997 82.701594 C 181.340496 82.701594 177.751955 81.383886 175.267579 78.758886 C 172.777996 76.11826 171.538412 72.33701 171.538412 67.425552 Z M 216.564457 37.993258 L 216.564457 81.998469 L 207.986331 81.998469 L 207.986331 21.258882 L 219.955082 21.258882 L 229.762375 57.613051 L 229.762375 21.258882 L 238.262375 21.258882 L 238.262375 81.998469 L 228.449874 81.998469 Z M 245.278001 35.837008 C 245.278001 30.920341 246.449876 27.149507 248.793626 24.519299 C 251.137376 21.878674 254.65821 20.560965 259.34571 20.560965 C 264.03321 20.560965 267.554044 21.878674 269.897794 24.519299 C 272.241544 27.149507 273.413419 30.920341 273.413419 35.837008 L 273.413419 38.185966 L 264.387377 38.185966 L 264.387377 35.222424 C 264.387377 33.029716 263.965502 31.493257 263.116543 30.602632 C 262.28321 29.696382 261.111335 29.243257 259.600918 29.243257 C 258.100918 29.243257 256.929043 29.696382 256.085293 30.602632 C 255.25196 31.493257 254.835293 33.029716 254.835293 35.222424 C 254.835293 37.310966 255.293626 39.154716 256.210293 40.748466 C 257.142585 42.3318 258.298835 43.837008 259.684252 45.264092 C 261.085293 46.67555 262.574877 48.087009 264.153002 49.498467 C 265.75196 50.909925 267.241544 52.456801 268.62696 54.139092 C 270.022794 55.821384 271.184252 57.732843 272.100919 59.878676 C 273.033211 62.014093 273.496752 64.529718 273.496752 67.425552 C 273.496752 72.33701 272.298836 76.11826 269.897794 78.758886 C 267.496752 81.383886 263.949877 82.701594 259.262377 82.701594 C 254.569668 82.701594 251.028001 81.383886 248.626959 78.758886 C 246.225917 76.11826 245.022792 72.33701 245.022792 67.425552 L 245.022792 63.248468 L 254.048835 63.248468 L 254.048835 68.040135 C 254.048835 70.227635 254.491543 71.758885 255.382168 72.633885 C 256.288418 73.498469 257.496751 73.925552 259.007168 73.925552 C 260.50196 73.925552 261.699877 73.498469 262.585293 72.633885 C 263.491543 71.758885 263.944668 70.227635 263.944668 68.040135 C 263.944668 65.946385 263.475918 64.113051 262.543627 62.529718 C 261.62696 60.935968 260.47071 59.430759 259.069668 58.019301 C 257.684251 56.592217 256.194668 55.170342 254.600918 53.758884 C 253.017584 52.331801 251.533209 50.784925 250.153001 49.118259 C 248.767584 47.435967 247.606126 45.529717 246.673834 43.399508 C 245.741542 41.253675 245.278001 38.727633 245.278001 35.837008 Z M 277.741544 21.258882 L 307.251963 21.258882 L 307.251963 29.925549 L 297.272796 29.925549 L 297.272796 81.998469 L 287.720712 81.998469 L 287.720712 29.925549 L 277.741544 29.925549 Z M 332.929048 81.998469 C 332.814465 81.592219 332.694673 81.217219 332.569673 80.878677 C 332.45509 80.524511 332.356131 80.087011 332.272798 79.560969 C 332.184256 79.040136 332.126965 78.378677 332.100923 77.571386 C 332.074881 76.769302 332.059256 75.758885 332.059256 74.540135 L 332.059256 64.988051 C 332.059256 62.149509 331.564465 60.154718 330.574881 59.014093 C 329.600923 57.852634 328.012381 57.274509 325.809256 57.274509 L 322.501964 57.274509 L 322.501964 81.998469 L 312.970713 81.998469 L 312.970713 21.258882 L 327.376964 21.258882 C 332.350923 21.258882 335.944673 22.415132 338.158215 24.73284 C 340.39259 27.034924 341.507174 30.529716 341.507174 35.222424 L 341.507174 40.008883 C 341.507174 46.253675 339.434257 50.352634 335.278007 52.316176 C 337.710298 53.305759 339.366548 54.915134 340.257174 57.149509 C 341.163424 59.368259 341.616549 62.060968 341.616549 65.24326 L 341.616549 74.628677 C 341.616549 76.123469 341.668632 77.435969 341.783215 78.566177 C 341.897799 79.696386 342.184257 80.842219 342.653007 81.998469 Z M 322.501964 29.925549 L 322.501964 48.587009 L 326.251964 48.587009 C 328.048839 48.587009 329.444673 48.128675 330.449881 47.212009 C 331.465506 46.279717 331.975923 44.597425 331.975923 42.170342 L 331.975923 36.175549 C 331.975923 33.982841 331.58009 32.394299 330.788423 31.404716 C 330.012381 30.420341 328.783214 29.925549 327.100923 29.925549 Z M 358.350925 21.258882 L 358.350925 68.123468 C 358.350925 70.310968 358.793633 71.842218 359.684258 72.722427 C 360.5853 73.581802 361.788425 74.014094 363.283217 74.014094 C 364.793633 74.014094 365.996759 73.581802 366.887384 72.722427 C 367.788425 71.842218 368.24155 70.310968 368.24155 68.123468 L 368.24155 21.258882 L 377.267593 21.258882 L 377.267593 67.508885 C 377.267593 72.425552 376.069676 76.201594 373.668634 78.842219 C 371.267592 81.472427 367.720717 82.784928 363.033217 82.784928 C 358.340508 82.784928 354.793633 81.472427 352.392591 78.842219 C 349.991549 76.201594 348.793632 72.425552 348.793632 67.508885 L 348.793632 21.258882 Z M 412.830095 59.352634 L 412.830095 67.425552 C 412.830095 72.33701 411.62697 76.11826 409.225928 78.758886 C 406.824886 81.383886 403.288428 82.701594 398.611344 82.701594 C 393.923844 82.701594 390.376968 81.383886 387.975927 78.758886 C 385.574885 76.11826 384.376968 72.33701 384.376968 67.425552 L 384.376968 35.837008 C 384.376968 30.920341 385.574885 27.149507 387.975927 24.519299 C 390.376968 21.878674 393.923844 20.560965 398.611344 20.560965 C 403.288428 20.560965 406.824886 21.878674 409.225928 24.519299 C 411.62697 27.149507 412.830095 30.920341 412.830095 35.837008 L 412.830095 41.722425 L 403.804053 41.722425 L 403.804053 35.222424 C 403.804053 33.029716 403.361344 31.493257 402.470719 30.602632 C 401.580094 29.696382 400.376969 29.243257 398.866552 29.243257 C 397.371761 29.243257 396.168636 29.696382 395.267594 30.602632 C 394.376969 31.493257 393.929052 33.029716 393.929052 35.222424 L 393.929052 68.040135 C 393.929052 70.227635 394.376969 71.758885 395.267594 72.633885 C 396.168636 73.498469 397.371761 73.925552 398.866552 73.925552 C 400.376969 73.925552 401.580094 73.498469 402.470719 72.633885 C 403.361344 71.758885 403.804053 70.227635 403.804053 68.040135 L 403.804053 59.352634 Z M 417.434262 21.258882 L 446.944681 21.258882 L 446.944681 29.925549 L 436.965513 29.925549 L 436.965513 81.998469 L 427.413429 81.998469 L 427.413429 29.925549 L 417.434262 29.925549 Z M 417.434262 21.258882" stroke="#FFF" stroke-width="3.526"/></svg>